999
dxflib 3.12.2.0
  0
SECTION
  2
HEADER
  9
$ACADVER
  1
AC1015
  9
$HANDSEED
  5
FFFF
  9
$DIMADEC
 70
0
  9
$DIMASZ
 40
2.5
  9
$DIMAUNIT
 70
0
  9
$DIMAZIN
 70
2
  9
$DIMDEC
 70
4
  9
$DIMEXE
 40
1.25
  9
$DIMEXO
 40
0.625
  9
$DIMGAP
 40
0.625
  9
$DIMLUNIT
 70
2
  9
$DIMSCALE
 40
1.0
  9
$DIMTSZ
 40
0.0
  9
$DIMTXT
 40
2.5
  9
$DIMZIN
 70
8
  9
$DWGCODEPAGE
  3
ANSI_1252
  9
$INSUNITS
 70
4
  9
$LTSCALE
 40
1.0
  9
$MEASUREMENT
 70
1
  9
$PDMODE
 70
0
  9
$PDSIZE
 40
0
  0
ENDSEC
  0
SECTION
  2
TABLES
  0
TABLE
  2
VPORT
  5
8
100
AcDbSymbolTable
 70
1
  0
VPORT
  5
30
100
AcDbSymbolTableRecord
100
AcDbViewportTableRecord
  2
*Active
 70
0
 10
0.0
 20
0.0
 11
1.0
 21
1.0
 12
286.30555555555549
 22
148.5
 13
0.0
 23
0.0
 14
10.0
 24
10.0
 15
10.0
 25
10.0
 16
0.0
 26
0.0
 36
1.0
 17
0.0
 27
0.0
 37
0.0
 40
297.0
 41
1.92798353909465
 42
50.0
 43
0.0
 44
0.0
 50
0.0
 51
0.0
 71
0
 72
100
 73
1
 74
3
 75
1
 76
1
 77
0
 78
0
281
0
 65
1
110
0.0
120
0.0
130
0.0
111
1.0
121
0.0
131
0.0
112
0.0
122
1.0
132
0.0
 79
0
146
0.0
  0
ENDTAB
  0
TABLE
  2
LTYPE
  5
5
100
AcDbSymbolTable
 70
41
  0
LTYPE
  5
16
100
AcDbSymbolTableRecord
100
AcDbLinetypeTableRecord
  2
Continuous
 70
0
  3
Solid line
 72
65
 73
0
 40
0.0
  0
LTYPE
  5
31
100
AcDbSymbolTableRecord
100
AcDbLinetypeTableRecord
  2
CENTER2
 70
0
  3
Center (.5x) ___ _ ___ _ ___ _ ___ _ ___ _ ___
 72
65
 73
4
 40
28.575000000000003
 49
19.050000000000001
 74
0
 49
-3.1749999999999998
 74
0
 49
3.1749999999999998
 74
0
 49
-3.1749999999999998
 74
0
  0
LTYPE
  5
32
100
AcDbSymbolTableRecord
100
AcDbLinetypeTableRecord
  2
DOT
 70
0
  3
Dot . . . . . . . . . . . . . . . . . . . . . . . .
 72
65
 73
2
 40
6.3499999999999996
 49
0.1
 74
0
 49
-6.25
 74
0
  0
LTYPE
  5
33
100
AcDbSymbolTableRecord
100
AcDbLinetypeTableRecord
  2
DASHDOT
 70
0
  3
Dash dot __ . __ . __ . __ . __ . __ . __ . __
 72
65
 73
4
 40
25.400000000000002
 49
12.699999999999999
 74
0
 49
-6.2999999999999998
 74
0
 49
0.1
 74
0
 49
-6.2999999999999998
 74
0
  0
LTYPE
  5
34
100
AcDbSymbolTableRecord
100
AcDbLinetypeTableRecord
  2
DASHDOT2
 70
0
  3
Dash dot (.5x) _._._._._._._._._._._._._._._.
 72
65
 73
4
 40
12.699999999999999
 49
6.3499999999999996
 74
0
 49
-3.125
 74
0
 49
0.1
 74
0
 49
-3.125
 74
0
  0
LTYPE
  5
35
100
AcDbSymbolTableRecord
100
AcDbLinetypeTableRecord
  2
CENTER
 70
0
  3
Center ____ _ ____ _ ____ _ ____ _ ____ _ ____
 72
65
 73
4
 40
50.800000000000004
 49
31.75
 74
0
 49
-6.3499999999999996
 74
0
 49
6.3499999999999996
 74
0
 49
-6.3499999999999996
 74
0
  0
LTYPE
  5
36
100
AcDbSymbolTableRecord
100
AcDbLinetypeTableRecord
  2
ACAD_ISO02W100
 70
0
  3
ISO dash __ __ __ __ __ __ __ __ __ __ __ __ __
 72
65
 73
2
 40
15.0
 49
12.0
 74
0
 49
-3.0
 74
0
  0
LTYPE
  5
37
100
AcDbSymbolTableRecord
100
AcDbLinetypeTableRecord
  2
ACAD_ISO13W100
 70
0
  3
ISO double-dash double-dot __ __ . . __ __ . . _
 72
65
 73
8
 40
36.000000000000007
 49
12.0
 74
0
 49
-3.0
 74
0
 49
12.0
 74
0
 49
-2.9500000000000002
 74
0
 49
0.1
 74
0
 49
-2.9000000000000004
 74
0
 49
0.1
 74
0
 49
-2.9500000000000002
 74
0
  0
LTYPE
  5
38
100
AcDbSymbolTableRecord
100
AcDbLinetypeTableRecord
  2
ACAD_ISO14W100
 70
0
  3
ISO dash triple-dot __ . . . __ . . . __ . . . _
 72
65
 73
8
 40
24.000000000000004
 49
12.0
 74
0
 49
-2.9500000000000002
 74
0
 49
0.1
 74
0
 49
-2.9000000000000004
 74
0
 49
0.1
 74
0
 49
-2.9000000000000004
 74
0
 49
0.1
 74
0
 49
-2.9500000000000002
 74
0
  0
LTYPE
  5
39
100
AcDbSymbolTableRecord
100
AcDbLinetypeTableRecord
  2
ACAD_ISO04W100
 70
0
  3
ISO long-dash dot ____ . ____ . ____ . ____ . _
 72
65
 73
4
 40
30.0
 49
24.0
 74
0
 49
-2.9500000000000002
 74
0
 49
0.1
 74
0
 49
-2.9500000000000002
 74
0
  0
LTYPE
  5
3A
100
AcDbSymbolTableRecord
100
AcDbLinetypeTableRecord
  2
CENTERX2
 70
0
  3
Center (2x) ________  __  ________  __  _____
 72
65
 73
4
 40
101.60000000000001
 49
63.5
 74
0
 49
-12.699999999999999
 74
0
 49
12.699999999999999
 74
0
 49
-12.699999999999999
 74
0
  0
LTYPE
  5
3B
100
AcDbSymbolTableRecord
100
AcDbLinetypeTableRecord
  2
ACAD_ISO07W100
 70
0
  3
ISO dot . . . . . . . . . . . . . . . . . . . . 
 72
65
 73
2
 40
3.0
 49
0.1
 74
0
 49
-2.8999999999999999
 74
0
  0
LTYPE
  5
14
100
AcDbSymbolTableRecord
100
AcDbLinetypeTableRecord
  2
BYBLOCK
 70
0
  3

 72
65
 73
0
 40
0.0
  0
LTYPE
  5
3C
100
AcDbSymbolTableRecord
100
AcDbLinetypeTableRecord
  2
ACAD_ISO05W100
 70
0
  3
ISO long-dash double-dot ____ .. ____ .. ____ . 
 72
65
 73
6
 40
33.000000000000007
 49
24.0
 74
0
 49
-2.9500000000000002
 74
0
 49
0.1
 74
0
 49
-2.9000000000000004
 74
0
 49
0.1
 74
0
 49
-2.9500000000000002
 74
0
  0
LTYPE
  5
3D
100
AcDbSymbolTableRecord
100
AcDbLinetypeTableRecord
  2
ACAD_ISO09W100
 70
0
  3
ISO long-dash double-short-dash ____ __ __ ____
 72
65
 73
6
 40
45.0
 49
24.0
 74
0
 49
-3.0
 74
0
 49
6.0
 74
0
 49
-3.0
 74
0
 49
6.0
 74
0
 49
-3.0
 74
0
  0
LTYPE
  5
3E
100
AcDbSymbolTableRecord
100
AcDbLinetypeTableRecord
  2
ACAD_ISO06W100
 70
0
  3
ISO long-dash triple-dot ____ ... ____ ... ____
 72
65
 73
8
 40
36.000000000000007
 49
24.0
 74
0
 49
-2.9500000000000002
 74
0
 49
0.1
 74
0
 49
-2.9000000000000004
 74
0
 49
0.1
 74
0
 49
-2.9000000000000004
 74
0
 49
0.1
 74
0
 49
-2.9500000000000002
 74
0
  0
LTYPE
  5
3F
100
AcDbSymbolTableRecord
100
AcDbLinetypeTableRecord
  2
ACAD_ISO15W100
 70
0
  3
ISO double-dash triple-dot __ __ . . . __ __ . .
 72
65
 73
10
 40
39.000000000000007
 49
12.0
 74
0
 49
-3.0
 74
0
 49
12.0
 74
0
 49
-2.9500000000000002
 74
0
 49
0.1
 74
0
 49
-2.9000000000000004
 74
0
 49
0.1
 74
0
 49
-2.9000000000000004
 74
0
 49
0.1
 74
0
 49
-2.9500000000000002
 74
0
  0
LTYPE
  5
40
100
AcDbSymbolTableRecord
100
AcDbLinetypeTableRecord
  2
ACAD_ISO08W100
 70
0
  3
ISO long-dash short-dash ____ __ ____ __ ____ _
 72
65
 73
4
 40
36.0
 49
24.0
 74
0
 49
-3.0
 74
0
 49
6.0
 74
0
 49
-3.0
 74
0
  0
LTYPE
  5
41
100
AcDbSymbolTableRecord
100
AcDbLinetypeTableRecord
  2
PHANTOMX2
 70
0
  3
Phantom (2x) ____________    ____    ____   _
 72
65
 73
6
 40
127.00000000000001
 49
63.5
 74
0
 49
-12.699999999999999
 74
0
 49
12.699999999999999
 74
0
 49
-12.699999999999999
 74
0
 49
12.699999999999999
 74
0
 49
-12.699999999999999
 74
0
  0
LTYPE
  5
42
100
AcDbSymbolTableRecord
100
AcDbLinetypeTableRecord
  2
DOT2
 70
0
  3
Dot (.5x) ........................................
 72
65
 73
2
 40
3.1749999999999998
 49
0.1
 74
0
 49
-3.0749999999999997
 74
0
  0
LTYPE
  5
43
100
AcDbSymbolTableRecord
100
AcDbLinetypeTableRecord
  2
DASHED
 70
0
  3
Dashed __ __ __ __ __ __ __ __ __ __ __ __ __ _
 72
65
 73
2
 40
19.049999999999997
 49
12.699999999999999
 74
0
 49
-6.3499999999999996
 74
0
  0
LTYPE
  5
15
100
AcDbSymbolTableRecord
100
AcDbLinetypeTableRecord
  2
BYLAYER
 70
0
  3

 72
65
 73
0
 40
0.0
  0
LTYPE
  5
44
100
AcDbSymbolTableRecord
100
AcDbLinetypeTableRecord
  2
BORDER2
 70
0
  3
Border (.5x) __.__.__.__.__.__.__.__.__.__.__.
 72
65
 73
6
 40
22.225000000000001
 49
6.3499999999999996
 74
0
 49
-3.1749999999999998
 74
0
 49
6.3499999999999996
 74
0
 49
-3.125
 74
0
 49
0.1
 74
0
 49
-3.125
 74
0
  0
LTYPE
  5
45
100
AcDbSymbolTableRecord
100
AcDbLinetypeTableRecord
  2
ACAD_ISO11W100
 70
0
  3
ISO double-dash dot __ __ . __ __ . __ __ . __ _
 72
65
 73
6
 40
33.0
 49
12.0
 74
0
 49
-3.0
 74
0
 49
12.0
 74
0
 49
-2.9500000000000002
 74
0
 49
0.1
 74
0
 49
-2.9500000000000002
 74
0
  0
LTYPE
  5
46
100
AcDbSymbolTableRecord
100
AcDbLinetypeTableRecord
  2
ACAD_ISO12W100
 70
0
  3
ISO dash double-dot __ . . __ . . __ . . __ . . 
 72
65
 73
6
 40
21.0
 49
12.0
 74
0
 49
-2.9500000000000002
 74
0
 49
0.1
 74
0
 49
-2.9000000000000004
 74
0
 49
0.1
 74
0
 49
-2.9500000000000002
 74
0
  0
LTYPE
  5
47
100
AcDbSymbolTableRecord
100
AcDbLinetypeTableRecord
  2
BORDERX2
 70
0
  3
Border (2x) ____  ____  .  ____  ____  .  ___
 72
65
 73
6
 40
88.899999999999977
 49
25.399999999999999
 74
0
 49
-12.699999999999999
 74
0
 49
25.399999999999999
 74
0
 49
-12.649999999999999
 74
0
 49
0.1
 74
0
 49
-12.649999999999999
 74
0
  0
LTYPE
  5
48
100
AcDbSymbolTableRecord
100
AcDbLinetypeTableRecord
  2
HIDDEN
 70
0
  3
Hidden __ __ __ __ __ __ __ __ __ __ __ __ __ __
 72
65
 73
2
 40
9.5249999999999986
 49
6.3499999999999996
 74
0
 49
-3.1749999999999998
 74
0
  0
LTYPE
  5
49
100
AcDbSymbolTableRecord
100
AcDbLinetypeTableRecord
  2
PHANTOM2
 70
0
  3
Phantom (.5x) ___ _ _ ___ _ _ ___ _ _ ___ _ _
 72
65
 73
6
 40
31.750000000000004
 49
15.875
 74
0
 49
-3.1749999999999998
 74
0
 49
3.1749999999999998
 74
0
 49
-3.1749999999999998
 74
0
 49
3.1749999999999998
 74
0
 49
-3.1749999999999998
 74
0
  0
LTYPE
  5
4A
100
AcDbSymbolTableRecord
100
AcDbLinetypeTableRecord
  2
DASHED2
 70
0
  3
Dashed (.5x) _ _ _ _ _ _ _ _ _ _ _ _ _ _ _ _ _ 
 72
65
 73
2
 40
9.5249999999999986
 49
6.3499999999999996
 74
0
 49
-3.1749999999999998
 74
0
  0
LTYPE
  5
4B
100
AcDbSymbolTableRecord
100
AcDbLinetypeTableRecord
  2
DIVIDE2
 70
0
  3
Divide (.5x) __..__..__..__..__..__..__..__.._
 72
65
 73
6
 40
15.874999999999998
 49
6.3499999999999996
 74
0
 49
-3.125
 74
0
 49
0.1
 74
0
 49
-3.0750000000000002
 74
0
 49
0.1
 74
0
 49
-3.125
 74
0
  0
LTYPE
  5
4C
100
AcDbSymbolTableRecord
100
AcDbLinetypeTableRecord
  2
HIDDENX2
 70
0
  3
Hidden (2x) ____ ____ ____ ____ ____ ____ ____ 
 72
65
 73
2
 40
19.049999999999997
 49
12.699999999999999
 74
0
 49
-6.3499999999999996
 74
0
  0
LTYPE
  5
4D
100
AcDbSymbolTableRecord
100
AcDbLinetypeTableRecord
  2
DIVIDE
 70
0
  3
Divide ____ . . ____ . . ____ . . ____ . . ____
 72
65
 73
6
 40
31.750000000000004
 49
12.699999999999999
 74
0
 49
-6.2999999999999998
 74
0
 49
0.1
 74
0
 49
-6.25
 74
0
 49
0.1
 74
0
 49
-6.2999999999999998
 74
0
  0
LTYPE
  5
4E
100
AcDbSymbolTableRecord
100
AcDbLinetypeTableRecord
  2
ACAD_ISO03W100
 70
0
  3
ISO dash space __    __    __    __    __    __
 72
65
 73
2
 40
30.0
 49
12.0
 74
0
 49
-18.0
 74
0
  0
LTYPE
  5
4F
100
AcDbSymbolTableRecord
100
AcDbLinetypeTableRecord
  2
DASHEDX2
 70
0
  3
Dashed (2x) ____  ____  ____  ____  ____  ___
 72
65
 73
2
 40
38.099999999999994
 49
25.399999999999999
 74
0
 49
-12.699999999999999
 74
0
  0
LTYPE
  5
50
100
AcDbSymbolTableRecord
100
AcDbLinetypeTableRecord
  2
HIDDEN2
 70
0
  3
Hidden (.5x) _ _ _ _ _ _ _ _ _ _ _ _ _ _ _ _ _ 
 72
65
 73
2
 40
4.7624999999999993
 49
3.1749999999999998
 74
0
 49
-1.5874999999999999
 74
0
  0
LTYPE
  5
51
100
AcDbSymbolTableRecord
100
AcDbLinetypeTableRecord
  2
BORDER
 70
0
  3
Border __ __ . __ __ . __ __ . __ __ . __ __ .
 72
65
 73
6
 40
44.449999999999996
 49
12.699999999999999
 74
0
 49
-6.3499999999999996
 74
0
 49
12.699999999999999
 74
0
 49
-6.2999999999999998
 74
0
 49
0.1
 74
0
 49
-6.2999999999999998
 74
0
  0
LTYPE
  5
52
100
AcDbSymbolTableRecord
100
AcDbLinetypeTableRecord
  2
PHANTOM
 70
0
  3
Phantom ______  __  __  ______  __  __  ______ 
 72
65
 73
6
 40
63.500000000000007
 49
31.75
 74
0
 49
-6.3499999999999996
 74
0
 49
6.3499999999999996
 74
0
 49
-6.3499999999999996
 74
0
 49
6.3499999999999996
 74
0
 49
-6.3499999999999996
 74
0
  0
LTYPE
  5
53
100
AcDbSymbolTableRecord
100
AcDbLinetypeTableRecord
  2
ACAD_ISO10W100
 70
0
  3
ISO dash dot __ . __ . __ . __ . __ . __ . __ . 
 72
65
 73
4
 40
18.0
 49
12.0
 74
0
 49
-2.9500000000000002
 74
0
 49
0.1
 74
0
 49
-2.9500000000000002
 74
0
  0
LTYPE
  5
54
100
AcDbSymbolTableRecord
100
AcDbLinetypeTableRecord
  2
DOTX2
 70
0
  3
Dot (2x) .  .  .  .  .  .  .  .  .  .  .  .  .  .
 72
65
 73
2
 40
12.699999999999999
 49
0.1
 74
0
 49
-12.6
 74
0
  0
LTYPE
  5
55
100
AcDbSymbolTableRecord
100
AcDbLinetypeTableRecord
  2
DIVIDEX2
 70
0
  3
Divide (2x) ________  .  .  ________  .  .  _
 72
65
 73
6
 40
63.5
 49
25.399999999999999
 74
0
 49
-12.649999999999999
 74
0
 49
0.1
 74
0
 49
-12.599999999999998
 74
0
 49
0.1
 74
0
 49
-12.649999999999999
 74
0
  0
LTYPE
  5
56
100
AcDbSymbolTableRecord
100
AcDbLinetypeTableRecord
  2
DASHDOTX2
 70
0
  3
Dash dot (2x) ____  .  ____  .  ____  .  ___
 72
65
 73
4
 40
50.799999999999997
 49
25.399999999999999
 74
0
 49
-12.649999999999999
 74
0
 49
0.1
 74
0
 49
-12.649999999999999
 74
0
  0
ENDTAB
  0
TABLE
  2
LAYER
  5
2
100
AcDbSymbolTable
 70
5
  0
LAYER
  5
57
100
AcDbSymbolTableRecord
100
AcDbLayerTableRecord
  2
Enclosure Help Lines
 70
0
 62
2
420
16776960
  6
ACAD_ISO02W100
370
25
390
F
  0
LAYER
  5
58
100
AcDbSymbolTableRecord
100
AcDbLayerTableRecord
  2
Enclosure Cut
 70
0
 62
2
420
16776960
  6
Continuous
370
25
390
F
  0
LAYER
  5
59
100
AcDbSymbolTableRecord
100
AcDbLayerTableRecord
  2
HDD
 70
0
 62
1
420
16711680
  6
Continuous
370
25
390
F
  0
LAYER
  5
10
100
AcDbSymbolTableRecord
100
AcDbLayerTableRecord
  2
0
 70
1
 62
-7
420
16777215
  6
Continuous
370
25
390
F
  0
LAYER
  5
5A
100
AcDbSymbolTableRecord
100
AcDbLayerTableRecord
  2
BananaPro
 70
0
 62
3
420
65280
  6
Continuous
370
25
390
F
  0
ENDTAB
  0
TABLE
  2
STYLE
  5
3
100
AcDbSymbolTable
 70
1
  0
STYLE
  5
5B
100
AcDbSymbolTableRecord
100
AcDbTextStyleTableRecord
  2
Standard
 70
0
 40
0.0
 41
1.0
 50
0.0
 71
0
 42
2.5
  3

  4

1001
ACAD
1000
txt
1071
0
  0
ENDTAB
  0
TABLE
  2
VIEW
  5
6
100
AcDbSymbolTable
 70
0
  0
ENDTAB
  0
TABLE
  2
UCS
  5
7
100
AcDbSymbolTable
 70
0
  0
ENDTAB
  0
TABLE
  2
APPID
  5
9
100
AcDbSymbolTable
 70
1
  0
APPID
  5
12
100
AcDbSymbolTableRecord
100
AcDbRegAppTableRecord
  2
ACAD
 70
0
  0
APPID
  5
5C
100
AcDbSymbolTableRecord
100
AcDbRegAppTableRecord
  2
QCAD
 70
0
  0
ENDTAB
  0
TABLE
  2
DIMSTYLE
  5
A
100
AcDbSymbolTable
 70
1
100
AcDbDimStyleTable
 71
0
  0
DIMSTYLE
105
27
100
AcDbSymbolTableRecord
100
AcDbDimStyleTableRecord
  2
Standard
 41
2.5
 42
0.625
 43
3.75
 44
1.25
 70
0
 73
0
 74
0
 77
1
 78
8
140
2.5
141
2.5
143
0.03937007874016
147
0.625
171
3
172
1
271
2
272
2
274
3
278
44
283
0
284
8
340
5B
  0
ENDTAB
  0
TABLE
  2
BLOCK_RECORD
  5
1
100
AcDbSymbolTable
 70
1
  0
BLOCK_RECORD
  5
1F
100
AcDbSymbolTableRecord
100
AcDbBlockTableRecord
  2
*Model_Space
340
22
  0
BLOCK_RECORD
  5
1B
100
AcDbSymbolTableRecord
100
AcDbBlockTableRecord
  2
*Paper_Space
340
1E
  0
BLOCK_RECORD
  5
23
100
AcDbSymbolTableRecord
100
AcDbBlockTableRecord
  2
*Paper_Space0
340
26
  0
ENDTAB
  0
ENDSEC
  0
SECTION
  2
BLOCKS
  0
BLOCK
  5
20
100
AcDbEntity
  8
0
100
AcDbBlockBegin
  2
*Model_Space
 70
0
 10
0.0
 20
0.0
 30
0.0
  3
*Model_Space
  1

  0
ENDBLK
  5
21
100
AcDbEntity
  8
0
100
AcDbBlockEnd
  0
BLOCK
  5
1C
100
AcDbEntity
 67
1
  8
0
100
AcDbBlockBegin
  2
*Paper_Space
 70
0
 10
0.0
 20
0.0
 30
0.0
  3
*Paper_Space
  1

  0
ENDBLK
  5
1D
100
AcDbEntity
 67
1
  8
0
100
AcDbBlockEnd
  0
BLOCK
  5
24
100
AcDbEntity
  8
0
100
AcDbBlockBegin
  2
*Paper_Space0
 70
0
 10
0.0
 20
0.0
 30
0.0
  3
*Paper_Space0
  1

  0
ENDBLK
  5
25
100
AcDbEntity
  8
0
100
AcDbBlockEnd
  0
ENDSEC
  0
SECTION
  2
ENTITIES
  0
LINE
  5
5D
100
AcDbEntity
100
AcDbLine
  8
BananaPro
 62
256
370
-1
 48
1.0
  6
BYLAYER
 10
105.90070931737762
 20
24.052041069516395
 30
0.0
 11
14.400709317377647
 21
24.052041069516363
 31
0.0
  0
LINE
  5
5E
100
AcDbEntity
100
AcDbLine
  8
BananaPro
 62
256
370
-1
 48
1.0
  6
BYLAYER
 10
14.400709317377647
 20
24.052041069516363
 30
0.0
 11
14.40070931737764
 21
84.052041069516406
 31
0.0
  0
LINE
  5
5F
100
AcDbEntity
100
AcDbLine
  8
BananaPro
 62
256
370
-1
 48
1.0
  6
BYLAYER
 10
14.40070931737764
 20
84.052041069516406
 30
0.0
 11
105.90070931737765
 21
84.052041069516378
 31
0.0
  0
LINE
  5
60
100
AcDbEntity
100
AcDbLine
  8
BananaPro
 62
256
370
-1
 48
1.0
  6
BYLAYER
 10
105.90070931737765
 20
84.052041069516378
 30
0.0
 11
105.90070931737765
 21
73.429722459466731
 31
0.0
  0
LINE
  5
61
100
AcDbEntity
100
AcDbLine
  8
BananaPro
 62
256
370
-1
 48
1.0
  6
BYLAYER
 10
105.90070931737765
 20
73.429722459466731
 30
0.0
 11
105.90070931737762
 21
24.052041069516392
 31
0.0
  0
CIRCLE
  5
62
100
AcDbEntity
100
AcDbCircle
  8
BananaPro
 62
256
370
-1
 48
1.0
  6
BYLAYER
 10
102.90070931737765
 20
27.05204106951641
 30
0.0
 40
2.0
  0
CIRCLE
  5
63
100
AcDbEntity
100
AcDbCircle
  8
BananaPro
 62
256
370
-1
 48
1.0
  6
BYLAYER
 10
102.90070931737765
 20
81.052041069516392
 30
0.0
 40
2.0
  0
CIRCLE
  5
64
100
AcDbEntity
100
AcDbCircle
  8
BananaPro
 62
256
370
-1
 48
1.0
  6
BYLAYER
 10
17.400709317377633
 20
76.052041069516392
 30
0.0
 40
2.0
  0
CIRCLE
  5
65
100
AcDbEntity
100
AcDbCircle
  8
BananaPro
 62
256
370
-1
 48
1.0
  6
BYLAYER
 10
17.400709317377633
 20
27.05204106951641
 30
0.0
 40
2.0
  0
LINE
  5
66
100
AcDbEntity
100
AcDbLine
  8
HDD
 62
256
370
-1
 48
1.0
  6
BYLAYER
 10
4.194999999999979
 20
151.0
 30
0.0
 11
105.80500000000002
 21
151.0
 31
0.0
  0
LINE
  5
67
100
AcDbEntity
100
AcDbLine
  8
HDD
 62
256
370
-1
 48
1.0
  6
BYLAYER
 10
105.80499999999999
 20
151.0
 30
0.0
 11
105.80499999999999
 21
3.9999999999999929
 31
0.0
  0
LINE
  5
68
100
AcDbEntity
100
AcDbLine
  8
HDD
 62
256
370
-1
 48
1.0
  6
BYLAYER
 10
105.80499999999999
 20
3.9999999999999929
 30
0.0
 11
4.1950000000000074
 21
4.0000000000000071
 31
0.0
  0
LINE
  5
69
100
AcDbEntity
100
AcDbLine
  8
HDD
 62
256
370
-1
 48
1.0
  6
BYLAYER
 10
4.1950000000000074
 20
4.0000000000000071
 30
0.0
 11
4.194999999999979
 21
151.0
 31
0.0
  0
CIRCLE
  5
6A
100
AcDbEntity
100
AcDbCircle
  8
HDD
 62
256
370
-1
 48
1.0
  6
BYLAYER
 10
7.3749999999999858
 20
109.71999999999996
 30
0.0
 40
1.8000000000000003
  0
CIRCLE
  5
6B
100
AcDbEntity
100
AcDbCircle
  8
HDD
 62
256
370
-1
 48
1.0
  6
BYLAYER
 10
102.62500000000001
 20
109.72
 30
0.0
 40
1.7999999999999972
  0
CIRCLE
  5
6C
100
AcDbEntity
100
AcDbCircle
  8
HDD
 62
256
370
-1
 48
1.0
  6
BYLAYER
 10
102.62500000000001
 20
65.269999999999982
 30
0.0
 40
1.7999999999999972
  0
CIRCLE
  5
6D
100
AcDbEntity
100
AcDbCircle
  8
HDD
 62
256
370
-1
 48
1.0
  6
BYLAYER
 10
7.375
 20
65.269999999999968
 30
0.0
 40
1.8000000000000003
  0
LINE
  5
6E
100
AcDbEntity
100
AcDbLine
  8
BananaPro
 62
256
370
-1
 48
1.0
  6
BYLAYER
 10
109.38702416660229
 20
73.429722459466731
 30
0.0
 11
109.38702416660229
 21
57.429722459466731
 31
0.0
  0
LINE
  5
6F
100
AcDbEntity
100
AcDbLine
  8
BananaPro
 62
256
370
-1
 48
1.0
  6
BYLAYER
 10
109.38702416660229
 20
57.429722069516401
 30
0.0
 11
105.90070931737763
 21
57.429722069516401
 31
0.0
  0
LINE
  5
70
100
AcDbEntity
100
AcDbLine
  8
BananaPro
 62
256
370
-1
 48
1.0
  6
BYLAYER
 10
109.38702416660229
 20
73.429722459466731
 30
0.0
 11
105.90070931737765
 21
73.429722459466731
 31
0.0
  0
LINE
  5
71
100
AcDbEntity
100
AcDbLine
  8
BananaPro
 62
256
370
-1
 48
1.0
  6
BYLAYER
 10
105.89250675026693
 20
52.04320473571407
 30
0.0
 11
109.87250675026692
 21
52.043204735714056
 31
0.0
  0
LINE
  5
72
100
AcDbEntity
100
AcDbLine
  8
BananaPro
 62
256
370
-1
 48
1.0
  6
BYLAYER
 10
109.87250675026692
 20
52.043204735714056
 30
0.0
 11
109.87250675026692
 21
38.873204735714026
 31
0.0
  0
LINE
  5
73
100
AcDbEntity
100
AcDbLine
  8
BananaPro
 62
256
370
-1
 48
1.0
  6
BYLAYER
 10
109.87250675026692
 20
38.873204735714026
 30
0.0
 11
105.89250675026693
 21
38.873204735714047
 31
0.0
  0
LINE
  5
74
100
AcDbEntity
100
AcDbLine
  8
Enclosure Cut
 62
256
370
-1
 48
1.0
  6
BYLAYER
 10
0.0
 20
0.0
 30
0.0
 11
0.0
 21
167.0
 31
0.0
  0
LINE
  5
75
100
AcDbEntity
100
AcDbLine
  8
Enclosure Cut
 62
256
370
-1
 48
1.0
  6
BYLAYER
 10
90.0
 20
0.0
 30
0.0
 11
110.0
 21
0.0
 31
0.0
  0
LINE
  5
76
100
AcDbEntity
100
AcDbLine
  8
Enclosure Cut
 62
256
370
-1
 48
1.0
  6
BYLAYER
 10
0.0
 20
0.0
 30
0.0
 11
20.0
 21
0.0
 31
0.0
  0
LINE
  5
77
100
AcDbEntity
100
AcDbLine
  8
Enclosure Cut
 62
256
370
-1
 48
1.0
  6
BYLAYER
 10
30.0
 20
0.0
 30
0.0
 11
80.0
 21
0.0
 31
0.0
  0
LINE
  5
78
100
AcDbEntity
100
AcDbLine
  8
Enclosure Cut
 62
256
370
-1
 48
1.0
  6
BYLAYER
 10
90.0
 20
167.0
 30
0.0
 11
110.0
 21
167.0
 31
0.0
  0
LINE
  5
79
100
AcDbEntity
100
AcDbLine
  8
Enclosure Cut
 62
256
370
-1
 48
1.0
  6
BYLAYER
 10
29.999999999999993
 20
167.0
 30
0.0
 11
80.0
 21
167.0
 31
0.0
  0
LINE
  5
7A
100
AcDbEntity
100
AcDbLine
  8
Enclosure Cut
 62
256
370
-1
 48
1.0
  6
BYLAYER
 10
0.0
 20
167.0
 30
0.0
 11
20.0
 21
167.0
 31
0.0
  0
LINE
  5
7B
100
AcDbEntity
100
AcDbLine
  8
Enclosure Help Lines
 62
256
370
-1
 48
1.0
  6
BYLAYER
 10
12.0
 20
163.0
 30
0.0
 11
12.0
 21
163.0
 31
0.0
  0
LINE
  5
7C
100
AcDbEntity
100
AcDbLine
  8
Enclosure Cut
 62
256
370
-1
 48
1.0
  6
BYLAYER
 10
110.0
 20
0.0
 30
0.0
 11
110.0
 21
167.0
 31
0.0
  0
LINE
  5
7D
100
AcDbEntity
100
AcDbLine
  8
Enclosure Help Lines
 62
256
370
-1
 48
1.0
  6
BYLAYER
 10
112.0
 20
6.0
 30
0.0
 11
112.0
 21
6.0
 31
0.0
  0
LINE
  5
7E
100
AcDbEntity
100
AcDbLine
  8
Enclosure Help Lines
 62
256
370
-1
 48
1.0
  6
BYLAYER
 10
3.0
 20
3.0
 30
0.0
 11
3.0
 21
164.0
 31
0.0
  0
LINE
  5
7F
100
AcDbEntity
100
AcDbLine
  8
Enclosure Help Lines
 62
256
370
-1
 48
1.0
  6
BYLAYER
 10
3.0
 20
164.0
 30
0.0
 11
107.0
 21
164.0
 31
0.0
  0
LINE
  5
80
100
AcDbEntity
100
AcDbLine
  8
Enclosure Cut
 62
256
370
-1
 48
1.0
  6
BYLAYER
 10
-60.0
 20
164.0
 30
0.0
 11
-60.0
 21
3.0
 31
0.0
  0
LINE
  5
81
100
AcDbEntity
100
AcDbLine
  8
Enclosure Cut
 62
256
370
-1
 48
1.0
  6
BYLAYER
 10
120.0
 20
152.25
 30
0.0
 11
120.0
 21
3.0
 31
0.0
  0
LINE
  5
82
100
AcDbEntity
100
AcDbLine
  8
Enclosure Cut
 62
256
370
-1
 48
1.0
  6
BYLAYER
 10
120.0
 20
164.0
 30
0.0
 11
120.0
 21
155.75
 31
0.0
  0
LINE
  5
83
100
AcDbEntity
100
AcDbLine
  8
Enclosure Cut
 62
256
370
-1
 48
1.0
  6
BYLAYER
 10
-10.0
 20
164.0
 30
0.0
 11
-10.0
 21
3.0
 31
0.0
  0
LINE
  5
84
100
AcDbEntity
100
AcDbLine
  8
Enclosure Cut
 62
256
370
-1
 48
1.0
  6
BYLAYER
 10
170.0
 20
164.0
 30
0.0
 11
170.0
 21
3.0
 31
0.0
  0
LINE
  5
85
100
AcDbEntity
100
AcDbLine
  8
Enclosure Help Lines
 62
256
370
-1
 48
1.0
  6
BYLAYER
 10
107.0
 20
164.0
 30
0.0
 11
107.0
 21
3.0
 31
0.0
  0
LINE
  5
86
100
AcDbEntity
100
AcDbLine
  8
Enclosure Help Lines
 62
256
370
-1
 48
1.0
  6
BYLAYER
 10
80.0
 20
3.0
 30
0.0
 11
30.0
 21
3.0
 31
0.0
  0
LINE
  5
87
100
AcDbEntity
100
AcDbLine
  8
Enclosure Help Lines
 62
256
370
-1
 48
1.0
  6
BYLAYER
 10
20.0
 20
3.0
 30
0.0
 11
3.0
 21
3.0
 31
0.0
  0
LINE
  5
88
100
AcDbEntity
100
AcDbLine
  8
Enclosure Help Lines
 62
256
370
-1
 48
1.0
  6
BYLAYER
 10
107.0
 20
3.0
 30
0.0
 11
90.0
 21
3.0
 31
0.0
  0
LINE
  5
89
100
AcDbEntity
100
AcDbLine
  8
BananaPro
 62
256
370
-1
 48
1.0
  6
BYLAYER
 10
28.34570931737764
 20
65.052041069516392
 30
0.0
 11
28.34570931737764
 21
65.052041069516392
 31
0.0
  0
LINE
  5
8A
100
AcDbEntity
100
AcDbLine
  8
BananaPro
 62
256
370
-1
 48
1.0
  6
BYLAYER
 10
44.34570931737764
 20
65.052041069516392
 30
0.0
 11
44.34570931737764
 21
65.052041069516392
 31
0.0
  0
LINE
  5
8B
100
AcDbEntity
100
AcDbLine
  8
BananaPro
 62
256
370
-1
 48
1.0
  6
BYLAYER
 10
44.34570931737764
 20
55.052041069516392
 30
0.0
 11
44.34570931737764
 21
55.052041069516392
 31
0.0
  0
LINE
  5
8C
100
AcDbEntity
100
AcDbLine
  8
BananaPro
 62
256
370
-1
 48
1.0
  6
BYLAYER
 10
28.34570931737764
 20
55.052041069516392
 30
0.0
 11
28.34570931737764
 21
55.052041069516392
 31
0.0
  0
LINE
  5
8D
100
AcDbEntity
100
AcDbLine
  8
BananaPro
 62
256
370
-1
 48
1.0
  6
BYLAYER
 10
32.34570931737764
 20
70.052041069516392
 30
0.0
 11
32.34570931737764
 21
70.052041069516392
 31
0.0
  0
LINE
  5
8E
100
AcDbEntity
100
AcDbLine
  8
BananaPro
 62
256
370
-1
 48
1.0
  6
BYLAYER
 10
32.34570931737764
 20
60.052041069516392
 30
0.0
 11
32.34570931737764
 21
60.052041069516392
 31
0.0
  0
LINE
  5
8F
100
AcDbEntity
100
AcDbLine
  8
BananaPro
 62
256
370
-1
 48
1.0
  6
BYLAYER
 10
32.34570931737764
 20
50.052041069516385
 30
0.0
 11
32.34570931737764
 21
50.052041069516385
 31
0.0
  0
LINE
  5
90
100
AcDbEntity
100
AcDbLine
  8
BananaPro
 62
256
370
-1
 48
1.0
  6
BYLAYER
 10
36.34570931737764
 20
65.052041069516392
 30
0.0
 11
36.34570931737764
 21
65.052041069516392
 31
0.0
  0
LINE
  5
91
100
AcDbEntity
100
AcDbLine
  8
BananaPro
 62
256
370
-1
 48
1.0
  6
BYLAYER
 10
36.34570931737764
 20
55.052041069516392
 30
0.0
 11
36.34570931737764
 21
55.052041069516392
 31
0.0
  0
LINE
  5
92
100
AcDbEntity
100
AcDbLine
  8
BananaPro
 62
256
370
-1
 48
1.0
  6
BYLAYER
 10
40.34570931737764
 20
50.052041069516385
 30
0.0
 11
40.34570931737764
 21
50.052041069516385
 31
0.0
  0
LINE
  5
93
100
AcDbEntity
100
AcDbLine
  8
BananaPro
 62
256
370
-1
 48
1.0
  6
BYLAYER
 10
40.34570931737764
 20
70.052041069516392
 30
0.0
 11
40.34570931737764
 21
70.052041069516392
 31
0.0
  0
LINE
  5
94
100
AcDbEntity
100
AcDbLine
  8
BananaPro
 62
256
370
-1
 48
1.0
  6
BYLAYER
 10
40.34570931737764
 20
60.052041069516392
 30
0.0
 11
40.34570931737764
 21
60.052041069516392
 31
0.0
  0
LINE
  5
95
100
AcDbEntity
100
AcDbLine
  8
BananaPro
 62
256
370
-1
 48
1.0
  6
BYLAYER
 10
29.34570931737764
 20
64.052041069516392
 30
0.0
 11
29.34570931737764
 21
58.052041069516392
 31
0.0
  0
LINE
  5
96
100
AcDbEntity
100
AcDbLine
  8
BananaPro
 62
256
370
-1
 48
1.0
  6
BYLAYER
 10
45.34570931737764
 20
64.052041069516392
 30
0.0
 11
45.34570931737764
 21
58.052041069516392
 31
0.0
  0
LINE
  5
97
100
AcDbEntity
100
AcDbLine
  8
BananaPro
 62
256
370
-1
 48
1.0
  6
BYLAYER
 10
45.34570931737764
 20
54.052041069516392
 30
0.0
 11
45.34570931737764
 21
48.052041069516385
 31
0.0
  0
LINE
  5
98
100
AcDbEntity
100
AcDbLine
  8
BananaPro
 62
256
370
-1
 48
1.0
  6
BYLAYER
 10
29.34570931737764
 20
54.052041069516392
 30
0.0
 11
29.34570931737764
 21
48.052041069516385
 31
0.0
  0
LINE
  5
99
100
AcDbEntity
100
AcDbLine
  8
BananaPro
 62
256
370
-1
 48
1.0
  6
BYLAYER
 10
33.34570931737764
 20
69.052041069516392
 30
0.0
 11
33.34570931737764
 21
63.052041069516392
 31
0.0
  0
LINE
  5
9A
100
AcDbEntity
100
AcDbLine
  8
BananaPro
 62
256
370
-1
 48
1.0
  6
BYLAYER
 10
33.34570931737764
 20
59.052041069516392
 30
0.0
 11
33.34570931737764
 21
53.052041069516392
 31
0.0
  0
LINE
  5
9B
100
AcDbEntity
100
AcDbLine
  8
BananaPro
 62
256
370
-1
 48
1.0
  6
BYLAYER
 10
33.34570931737764
 20
49.052041069516385
 30
0.0
 11
33.34570931737764
 21
43.052041069516385
 31
0.0
  0
LINE
  5
9C
100
AcDbEntity
100
AcDbLine
  8
BananaPro
 62
256
370
-1
 48
1.0
  6
BYLAYER
 10
37.34570931737764
 20
64.052041069516392
 30
0.0
 11
37.34570931737764
 21
58.052041069516392
 31
0.0
  0
LINE
  5
9D
100
AcDbEntity
100
AcDbLine
  8
BananaPro
 62
256
370
-1
 48
1.0
  6
BYLAYER
 10
37.34570931737764
 20
54.052041069516392
 30
0.0
 11
37.34570931737764
 21
48.052041069516385
 31
0.0
  0
LINE
  5
9E
100
AcDbEntity
100
AcDbLine
  8
BananaPro
 62
256
370
-1
 48
1.0
  6
BYLAYER
 10
41.34570931737764
 20
69.052041069516392
 30
0.0
 11
41.34570931737764
 21
63.052041069516392
 31
0.0
  0
LINE
  5
9F
100
AcDbEntity
100
AcDbLine
  8
BananaPro
 62
256
370
-1
 48
1.0
  6
BYLAYER
 10
41.34570931737764
 20
59.052041069516392
 30
0.0
 11
41.34570931737764
 21
53.052041069516392
 31
0.0
  0
LINE
  5
A0
100
AcDbEntity
100
AcDbLine
  8
BananaPro
 62
256
370
-1
 48
1.0
  6
BYLAYER
 10
41.34570931737764
 20
49.052041069516385
 30
0.0
 11
41.34570931737764
 21
43.052041069516385
 31
0.0
  0
LINE
  5
A1
100
AcDbEntity
100
AcDbLine
  8
BananaPro
 62
256
370
-1
 48
1.0
  6
BYLAYER
 10
40.34570931737764
 20
62.052041069516392
 30
0.0
 11
40.34570931737764
 21
62.052041069516392
 31
0.0
  0
LINE
  5
A2
100
AcDbEntity
100
AcDbLine
  8
BananaPro
 62
256
370
-1
 48
1.0
  6
BYLAYER
 10
28.34570931737764
 20
57.052041069516392
 30
0.0
 11
28.34570931737764
 21
57.052041069516392
 31
0.0
  0
LINE
  5
A3
100
AcDbEntity
100
AcDbLine
  8
BananaPro
 62
256
370
-1
 48
1.0
  6
BYLAYER
 10
44.34570931737764
 20
57.052041069516392
 30
0.0
 11
44.34570931737764
 21
57.052041069516392
 31
0.0
  0
LINE
  5
A4
100
AcDbEntity
100
AcDbLine
  8
BananaPro
 62
256
370
-1
 48
1.0
  6
BYLAYER
 10
44.34570931737764
 20
47.052041069516385
 30
0.0
 11
44.34570931737764
 21
47.052041069516385
 31
0.0
  0
LINE
  5
A5
100
AcDbEntity
100
AcDbLine
  8
BananaPro
 62
256
370
-1
 48
1.0
  6
BYLAYER
 10
28.34570931737764
 20
47.052041069516385
 30
0.0
 11
28.34570931737764
 21
47.052041069516385
 31
0.0
  0
LINE
  5
A6
100
AcDbEntity
100
AcDbLine
  8
BananaPro
 62
256
370
-1
 48
1.0
  6
BYLAYER
 10
32.34570931737764
 20
62.052041069516392
 30
0.0
 11
32.34570931737764
 21
62.052041069516392
 31
0.0
  0
LINE
  5
A7
100
AcDbEntity
100
AcDbLine
  8
BananaPro
 62
256
370
-1
 48
1.0
  6
BYLAYER
 10
32.34570931737764
 20
52.052041069516392
 30
0.0
 11
32.34570931737764
 21
52.052041069516392
 31
0.0
  0
LINE
  5
A8
100
AcDbEntity
100
AcDbLine
  8
BananaPro
 62
256
370
-1
 48
1.0
  6
BYLAYER
 10
32.34570931737764
 20
42.052041069516385
 30
0.0
 11
32.34570931737764
 21
42.052041069516385
 31
0.0
  0
LINE
  5
A9
100
AcDbEntity
100
AcDbLine
  8
BananaPro
 62
256
370
-1
 48
1.0
  6
BYLAYER
 10
36.34570931737764
 20
57.052041069516392
 30
0.0
 11
36.34570931737764
 21
57.052041069516392
 31
0.0
  0
LINE
  5
AA
100
AcDbEntity
100
AcDbLine
  8
BananaPro
 62
256
370
-1
 48
1.0
  6
BYLAYER
 10
36.34570931737764
 20
47.052041069516385
 30
0.0
 11
36.34570931737764
 21
47.052041069516385
 31
0.0
  0
LINE
  5
AB
100
AcDbEntity
100
AcDbLine
  8
BananaPro
 62
256
370
-1
 48
1.0
  6
BYLAYER
 10
40.34570931737764
 20
52.052041069516392
 30
0.0
 11
40.34570931737764
 21
52.052041069516392
 31
0.0
  0
LINE
  5
AC
100
AcDbEntity
100
AcDbLine
  8
BananaPro
 62
256
370
-1
 48
1.0
  6
BYLAYER
 10
40.34570931737764
 20
42.052041069516385
 30
0.0
 11
40.34570931737764
 21
42.052041069516385
 31
0.0
  0
LINE
  5
AD
100
AcDbEntity
100
AcDbLine
  8
BananaPro
 62
256
370
-1
 48
1.0
  6
BYLAYER
 10
39.34570931737764
 20
63.052041069516392
 30
0.0
 11
39.34570931737764
 21
69.052041069516392
 31
0.0
  0
LINE
  5
AE
100
AcDbEntity
100
AcDbLine
  8
BananaPro
 62
256
370
-1
 48
1.0
  6
BYLAYER
 10
39.34570931737764
 20
53.052041069516392
 30
0.0
 11
39.34570931737764
 21
59.052041069516392
 31
0.0
  0
LINE
  5
AF
100
AcDbEntity
100
AcDbLine
  8
BananaPro
 62
256
370
-1
 48
1.0
  6
BYLAYER
 10
39.34570931737764
 20
43.052041069516385
 30
0.0
 11
39.34570931737764
 21
49.052041069516385
 31
0.0
  0
LINE
  5
B0
100
AcDbEntity
100
AcDbLine
  8
BananaPro
 62
256
370
-1
 48
1.0
  6
BYLAYER
 10
43.34570931737764
 20
58.052041069516392
 30
0.0
 11
43.34570931737764
 21
64.052041069516392
 31
0.0
  0
LINE
  5
B1
100
AcDbEntity
100
AcDbLine
  8
BananaPro
 62
256
370
-1
 48
1.0
  6
BYLAYER
 10
43.34570931737764
 20
48.052041069516385
 30
0.0
 11
43.34570931737764
 21
54.052041069516392
 31
0.0
  0
LINE
  5
B2
100
AcDbEntity
100
AcDbLine
  8
BananaPro
 62
256
370
-1
 48
1.0
  6
BYLAYER
 10
27.34570931737764
 20
58.052041069516392
 30
0.0
 11
27.34570931737764
 21
64.052041069516392
 31
0.0
  0
LINE
  5
B3
100
AcDbEntity
100
AcDbLine
  8
BananaPro
 62
256
370
-1
 48
1.0
  6
BYLAYER
 10
27.34570931737764
 20
48.052041069516385
 30
0.0
 11
27.34570931737764
 21
54.052041069516392
 31
0.0
  0
LINE
  5
B4
100
AcDbEntity
100
AcDbLine
  8
BananaPro
 62
256
370
-1
 48
1.0
  6
BYLAYER
 10
31.34570931737764
 20
63.052041069516392
 30
0.0
 11
31.34570931737764
 21
69.052041069516392
 31
0.0
  0
LINE
  5
B5
100
AcDbEntity
100
AcDbLine
  8
BananaPro
 62
256
370
-1
 48
1.0
  6
BYLAYER
 10
31.34570931737764
 20
53.052041069516392
 30
0.0
 11
31.34570931737764
 21
59.052041069516392
 31
0.0
  0
LINE
  5
B6
100
AcDbEntity
100
AcDbLine
  8
BananaPro
 62
256
370
-1
 48
1.0
  6
BYLAYER
 10
31.34570931737764
 20
43.052041069516385
 30
0.0
 11
31.34570931737764
 21
49.052041069516385
 31
0.0
  0
LINE
  5
B7
100
AcDbEntity
100
AcDbLine
  8
BananaPro
 62
256
370
-1
 48
1.0
  6
BYLAYER
 10
35.34570931737764
 20
58.052041069516392
 30
0.0
 11
35.34570931737764
 21
64.052041069516392
 31
0.0
  0
LINE
  5
B8
100
AcDbEntity
100
AcDbLine
  8
BananaPro
 62
256
370
-1
 48
1.0
  6
BYLAYER
 10
35.34570931737764
 20
48.052041069516385
 30
0.0
 11
35.34570931737764
 21
54.052041069516392
 31
0.0
  0
ARC
  5
B9
100
AcDbEntity
  8
BananaPro
 62
256
370
-1
 48
1.0
  6
BYLAYER
100
AcDbCircle
 10
40.34570931737764
 20
59.052041069516392
 30
0.0
 40
1.0
100
AcDbArc
 50
90.0
 51
180.0
  0
ARC
  5
BA
100
AcDbEntity
  8
BananaPro
 62
256
370
-1
 48
1.0
  6
BYLAYER
100
AcDbCircle
 10
28.34570931737764
 20
64.052041069516392
 30
0.0
 40
1.0
100
AcDbArc
 50
90.0
 51
180.0
  0
ARC
  5
BB
100
AcDbEntity
  8
BananaPro
 62
256
370
-1
 48
1.0
  6
BYLAYER
100
AcDbCircle
 10
28.34570931737764
 20
54.052041069516392
 30
0.0
 40
1.0
100
AcDbArc
 50
90.0
 51
180.0
  0
ARC
  5
BC
100
AcDbEntity
  8
BananaPro
 62
256
370
-1
 48
1.0
  6
BYLAYER
100
AcDbCircle
 10
44.34570931737764
 20
64.052041069516392
 30
0.0
 40
1.0
100
AcDbArc
 50
90.0
 51
180.0
  0
ARC
  5
BD
100
AcDbEntity
  8
BananaPro
 62
256
370
-1
 48
1.0
  6
BYLAYER
100
AcDbCircle
 10
44.34570931737764
 20
54.052041069516392
 30
0.0
 40
1.0
100
AcDbArc
 50
90.0
 51
180.0
  0
ARC
  5
BE
100
AcDbEntity
  8
BananaPro
 62
256
370
-1
 48
1.0
  6
BYLAYER
100
AcDbCircle
 10
32.34570931737764
 20
69.052041069516392
 30
0.0
 40
1.0
100
AcDbArc
 50
90.0
 51
180.0
  0
ARC
  5
BF
100
AcDbEntity
  8
BananaPro
 62
256
370
-1
 48
1.0
  6
BYLAYER
100
AcDbCircle
 10
32.34570931737764
 20
59.052041069516392
 30
0.0
 40
1.0
100
AcDbArc
 50
90.0
 51
180.0
  0
ARC
  5
C0
100
AcDbEntity
  8
BananaPro
 62
256
370
-1
 48
1.0
  6
BYLAYER
100
AcDbCircle
 10
32.34570931737764
 20
49.052041069516385
 30
0.0
 40
1.0
100
AcDbArc
 50
90.0
 51
180.0
  0
ARC
  5
C1
100
AcDbEntity
  8
BananaPro
 62
256
370
-1
 48
1.0
  6
BYLAYER
100
AcDbCircle
 10
36.34570931737764
 20
64.052041069516392
 30
0.0
 40
1.0
100
AcDbArc
 50
90.0
 51
180.0
  0
ARC
  5
C2
100
AcDbEntity
  8
BananaPro
 62
256
370
-1
 48
1.0
  6
BYLAYER
100
AcDbCircle
 10
36.34570931737764
 20
54.052041069516392
 30
0.0
 40
1.0
100
AcDbArc
 50
90.0
 51
180.0
  0
ARC
  5
C3
100
AcDbEntity
  8
BananaPro
 62
256
370
-1
 48
1.0
  6
BYLAYER
100
AcDbCircle
 10
40.34570931737764
 20
49.052041069516385
 30
0.0
 40
1.0
100
AcDbArc
 50
90.0
 51
180.0
  0
ARC
  5
C4
100
AcDbEntity
  8
BananaPro
 62
256
370
-1
 48
1.0
  6
BYLAYER
100
AcDbCircle
 10
40.34570931737764
 20
69.052041069516392
 30
0.0
 40
1.0
100
AcDbArc
 50
90.0
 51
180.0
  0
ARC
  5
C5
100
AcDbEntity
  8
BananaPro
 62
256
370
-1
 48
1.0
  6
BYLAYER
100
AcDbCircle
 10
40.34570931737764
 20
69.052041069516392
 30
0.0
 40
1.0
100
AcDbArc
 50
0.0
 51
90.0
  0
ARC
  5
C6
100
AcDbEntity
  8
BananaPro
 62
256
370
-1
 48
1.0
  6
BYLAYER
100
AcDbCircle
 10
40.34570931737764
 20
59.052041069516392
 30
0.0
 40
1.0
100
AcDbArc
 50
0.0
 51
90.0
  0
ARC
  5
C7
100
AcDbEntity
  8
BananaPro
 62
256
370
-1
 48
1.0
  6
BYLAYER
100
AcDbCircle
 10
28.34570931737764
 20
64.052041069516392
 30
0.0
 40
1.0
100
AcDbArc
 50
0.0
 51
90.0
  0
ARC
  5
C8
100
AcDbEntity
  8
BananaPro
 62
256
370
-1
 48
1.0
  6
BYLAYER
100
AcDbCircle
 10
28.34570931737764
 20
54.052041069516392
 30
0.0
 40
1.0
100
AcDbArc
 50
0.0
 51
90.0
  0
ARC
  5
C9
100
AcDbEntity
  8
BananaPro
 62
256
370
-1
 48
1.0
  6
BYLAYER
100
AcDbCircle
 10
44.34570931737764
 20
64.052041069516392
 30
0.0
 40
1.0
100
AcDbArc
 50
0.0
 51
90.0
  0
ARC
  5
CA
100
AcDbEntity
  8
BananaPro
 62
256
370
-1
 48
1.0
  6
BYLAYER
100
AcDbCircle
 10
44.34570931737764
 20
54.052041069516392
 30
0.0
 40
1.0
100
AcDbArc
 50
0.0
 51
90.0
  0
ARC
  5
CB
100
AcDbEntity
  8
BananaPro
 62
256
370
-1
 48
1.0
  6
BYLAYER
100
AcDbCircle
 10
32.34570931737764
 20
69.052041069516392
 30
0.0
 40
1.0
100
AcDbArc
 50
0.0
 51
90.0
  0
ARC
  5
CC
100
AcDbEntity
  8
BananaPro
 62
256
370
-1
 48
1.0
  6
BYLAYER
100
AcDbCircle
 10
32.34570931737764
 20
59.052041069516392
 30
0.0
 40
1.0
100
AcDbArc
 50
0.0
 51
90.0
  0
ARC
  5
CD
100
AcDbEntity
  8
BananaPro
 62
256
370
-1
 48
1.0
  6
BYLAYER
100
AcDbCircle
 10
32.34570931737764
 20
49.052041069516385
 30
0.0
 40
1.0
100
AcDbArc
 50
0.0
 51
90.0
  0
ARC
  5
CE
100
AcDbEntity
  8
BananaPro
 62
256
370
-1
 48
1.0
  6
BYLAYER
100
AcDbCircle
 10
36.34570931737764
 20
64.052041069516392
 30
0.0
 40
1.0
100
AcDbArc
 50
0.0
 51
90.0
  0
ARC
  5
CF
100
AcDbEntity
  8
BananaPro
 62
256
370
-1
 48
1.0
  6
BYLAYER
100
AcDbCircle
 10
36.34570931737764
 20
54.052041069516392
 30
0.0
 40
1.0
100
AcDbArc
 50
0.0
 51
90.0
  0
ARC
  5
D0
100
AcDbEntity
  8
BananaPro
 62
256
370
-1
 48
1.0
  6
BYLAYER
100
AcDbCircle
 10
40.34570931737764
 20
49.052041069516385
 30
0.0
 40
1.0
100
AcDbArc
 50
0.0
 51
90.0
  0
ARC
  5
D1
100
AcDbEntity
  8
BananaPro
 62
256
370
-1
 48
1.0
  6
BYLAYER
100
AcDbCircle
 10
40.34570931737764
 20
63.052041069516392
 30
0.0
 40
1.0
100
AcDbArc
 50
180.0
 51
270.0
  0
ARC
  5
D2
100
AcDbEntity
  8
BananaPro
 62
256
370
-1
 48
1.0
  6
BYLAYER
100
AcDbCircle
 10
40.34570931737764
 20
53.052041069516392
 30
0.0
 40
1.0
100
AcDbArc
 50
180.0
 51
270.0
  0
ARC
  5
D3
100
AcDbEntity
  8
BananaPro
 62
256
370
-1
 48
1.0
  6
BYLAYER
100
AcDbCircle
 10
28.34570931737764
 20
58.052041069516392
 30
0.0
 40
1.0
100
AcDbArc
 50
180.0
 51
270.0
  0
ARC
  5
D4
100
AcDbEntity
  8
BananaPro
 62
256
370
-1
 48
1.0
  6
BYLAYER
100
AcDbCircle
 10
40.34570931737764
 20
43.052041069516385
 30
0.0
 40
1.0
100
AcDbArc
 50
180.0
 51
270.0
  0
ARC
  5
D5
100
AcDbEntity
  8
BananaPro
 62
256
370
-1
 48
1.0
  6
BYLAYER
100
AcDbCircle
 10
28.34570931737764
 20
48.052041069516385
 30
0.0
 40
1.0
100
AcDbArc
 50
180.0
 51
270.0
  0
ARC
  5
D6
100
AcDbEntity
  8
BananaPro
 62
256
370
-1
 48
1.0
  6
BYLAYER
100
AcDbCircle
 10
44.34570931737764
 20
58.052041069516392
 30
0.0
 40
1.0
100
AcDbArc
 50
180.0
 51
270.0
  0
ARC
  5
D7
100
AcDbEntity
  8
BananaPro
 62
256
370
-1
 48
1.0
  6
BYLAYER
100
AcDbCircle
 10
44.34570931737764
 20
48.052041069516385
 30
0.0
 40
1.0
100
AcDbArc
 50
180.0
 51
270.0
  0
ARC
  5
D8
100
AcDbEntity
  8
BananaPro
 62
256
370
-1
 48
1.0
  6
BYLAYER
100
AcDbCircle
 10
32.34570931737764
 20
63.052041069516392
 30
0.0
 40
1.0
100
AcDbArc
 50
180.0
 51
270.0
  0
ARC
  5
D9
100
AcDbEntity
  8
BananaPro
 62
256
370
-1
 48
1.0
  6
BYLAYER
100
AcDbCircle
 10
32.34570931737764
 20
53.052041069516392
 30
0.0
 40
1.0
100
AcDbArc
 50
180.0
 51
270.0
  0
ARC
  5
DA
100
AcDbEntity
  8
BananaPro
 62
256
370
-1
 48
1.0
  6
BYLAYER
100
AcDbCircle
 10
32.34570931737764
 20
43.052041069516385
 30
0.0
 40
1.0
100
AcDbArc
 50
180.0
 51
270.0
  0
ARC
  5
DB
100
AcDbEntity
  8
BananaPro
 62
256
370
-1
 48
1.0
  6
BYLAYER
100
AcDbCircle
 10
36.34570931737764
 20
58.052041069516392
 30
0.0
 40
1.0
100
AcDbArc
 50
180.0
 51
270.0
  0
ARC
  5
DC
100
AcDbEntity
  8
BananaPro
 62
256
370
-1
 48
1.0
  6
BYLAYER
100
AcDbCircle
 10
36.34570931737764
 20
48.052041069516385
 30
0.0
 40
1.0
100
AcDbArc
 50
180.0
 51
270.0
  0
ARC
  5
DD
100
AcDbEntity
  8
BananaPro
 62
256
370
-1
 48
1.0
  6
BYLAYER
100
AcDbCircle
 10
40.34570931737764
 20
63.052041069516392
 30
0.0
 40
1.0
100
AcDbArc
 50
270.0
 51
0.0
  0
ARC
  5
DE
100
AcDbEntity
  8
BananaPro
 62
256
370
-1
 48
1.0
  6
BYLAYER
100
AcDbCircle
 10
40.34570931737764
 20
53.052041069516392
 30
0.0
 40
1.0
100
AcDbArc
 50
270.0
 51
0.0
  0
ARC
  5
DF
100
AcDbEntity
  8
BananaPro
 62
256
370
-1
 48
1.0
  6
BYLAYER
100
AcDbCircle
 10
40.34570931737764
 20
43.052041069516385
 30
0.0
 40
1.0
100
AcDbArc
 50
270.0
 51
0.0
  0
ARC
  5
E0
100
AcDbEntity
  8
BananaPro
 62
256
370
-1
 48
1.0
  6
BYLAYER
100
AcDbCircle
 10
28.34570931737764
 20
58.052041069516392
 30
0.0
 40
1.0
100
AcDbArc
 50
270.0
 51
0.0
  0
ARC
  5
E1
100
AcDbEntity
  8
BananaPro
 62
256
370
-1
 48
1.0
  6
BYLAYER
100
AcDbCircle
 10
28.34570931737764
 20
48.052041069516385
 30
0.0
 40
1.0
100
AcDbArc
 50
270.0
 51
0.0
  0
ARC
  5
E2
100
AcDbEntity
  8
BananaPro
 62
256
370
-1
 48
1.0
  6
BYLAYER
100
AcDbCircle
 10
44.34570931737764
 20
58.052041069516392
 30
0.0
 40
1.0
100
AcDbArc
 50
270.0
 51
0.0
  0
ARC
  5
E3
100
AcDbEntity
  8
BananaPro
 62
256
370
-1
 48
1.0
  6
BYLAYER
100
AcDbCircle
 10
44.34570931737764
 20
48.052041069516385
 30
0.0
 40
1.0
100
AcDbArc
 50
270.0
 51
0.0
  0
ARC
  5
E4
100
AcDbEntity
  8
BananaPro
 62
256
370
-1
 48
1.0
  6
BYLAYER
100
AcDbCircle
 10
32.34570931737764
 20
63.052041069516392
 30
0.0
 40
1.0
100
AcDbArc
 50
270.0
 51
0.0
  0
ARC
  5
E5
100
AcDbEntity
  8
BananaPro
 62
256
370
-1
 48
1.0
  6
BYLAYER
100
AcDbCircle
 10
32.34570931737764
 20
53.052041069516392
 30
0.0
 40
1.0
100
AcDbArc
 50
270.0
 51
0.0
  0
ARC
  5
E6
100
AcDbEntity
  8
BananaPro
 62
256
370
-1
 48
1.0
  6
BYLAYER
100
AcDbCircle
 10
32.34570931737764
 20
43.052041069516385
 30
0.0
 40
1.0
100
AcDbArc
 50
270.0
 51
0.0
  0
ARC
  5
E7
100
AcDbEntity
  8
BananaPro
 62
256
370
-1
 48
1.0
  6
BYLAYER
100
AcDbCircle
 10
36.34570931737764
 20
58.052041069516392
 30
0.0
 40
1.0
100
AcDbArc
 50
270.0
 51
0.0
  0
ARC
  5
E8
100
AcDbEntity
  8
BananaPro
 62
256
370
-1
 48
1.0
  6
BYLAYER
100
AcDbCircle
 10
36.34570931737764
 20
48.052041069516385
 30
0.0
 40
1.0
100
AcDbArc
 50
270.0
 51
0.0
  0
LINE
  5
E9
100
AcDbEntity
100
AcDbLine
  8
Enclosure Cut
 62
256
370
-1
 48
1.0
  6
BYLAYER
 10
-10.0
 20
164.0
 30
0.0
 11
-20.0
 21
164.0
 31
0.0
  0
LINE
  5
EA
100
AcDbEntity
100
AcDbLine
  8
Enclosure Cut
 62
256
370
-1
 48
1.0
  6
BYLAYER
 10
170.0
 20
164.0
 30
0.0
 11
160.0
 21
164.0
 31
0.0
  0
LINE
  5
EB
100
AcDbEntity
100
AcDbLine
  8
Enclosure Cut
 62
256
370
-1
 48
1.0
  6
BYLAYER
 10
-30.0
 20
164.0
 30
0.0
 11
-40.0
 21
164.0
 31
0.0
  0
LINE
  5
EC
100
AcDbEntity
100
AcDbLine
  8
Enclosure Cut
 62
256
370
-1
 48
1.0
  6
BYLAYER
 10
150.0
 20
164.0
 30
0.0
 11
140.0
 21
164.0
 31
0.0
  0
LINE
  5
ED
100
AcDbEntity
100
AcDbLine
  8
Enclosure Cut
 62
256
370
-1
 48
1.0
  6
BYLAYER
 10
-50.0
 20
164.0
 30
0.0
 11
-60.0
 21
164.0
 31
0.0
  0
LINE
  5
EE
100
AcDbEntity
100
AcDbLine
  8
Enclosure Cut
 62
256
370
-1
 48
1.0
  6
BYLAYER
 10
130.0
 20
164.0
 30
0.0
 11
120.0
 21
164.0
 31
0.0
  0
LINE
  5
EF
100
AcDbEntity
100
AcDbLine
  8
Enclosure Cut
 62
256
370
-1
 48
1.0
  6
BYLAYER
 10
-60.0
 20
3.0
 30
0.0
 11
-50.0
 21
3.0
 31
0.0
  0
LINE
  5
F0
100
AcDbEntity
100
AcDbLine
  8
Enclosure Cut
 62
256
370
-1
 48
1.0
  6
BYLAYER
 10
120.0
 20
3.0
 30
0.0
 11
130.0
 21
3.0
 31
0.0
  0
LINE
  5
F1
100
AcDbEntity
100
AcDbLine
  8
Enclosure Cut
 62
256
370
-1
 48
1.0
  6
BYLAYER
 10
-20.0
 20
3.0
 30
0.0
 11
-10.0
 21
3.0
 31
0.0
  0
LINE
  5
F2
100
AcDbEntity
100
AcDbLine
  8
Enclosure Cut
 62
256
370
-1
 48
1.0
  6
BYLAYER
 10
160.0
 20
3.0
 30
0.0
 11
170.0
 21
3.0
 31
0.0
  0
LINE
  5
F3
100
AcDbEntity
100
AcDbLine
  8
Enclosure Cut
 62
256
370
-1
 48
1.0
  6
BYLAYER
 10
-40.0
 20
167.0
 30
0.0
 11
-50.0
 21
167.0
 31
0.0
  0
LINE
  5
F4
100
AcDbEntity
100
AcDbLine
  8
Enclosure Cut
 62
256
370
-1
 48
1.0
  6
BYLAYER
 10
140.0
 20
167.0
 30
0.0
 11
130.0
 21
167.0
 31
0.0
  0
LINE
  5
F5
100
AcDbEntity
100
AcDbLine
  8
Enclosure Cut
 62
256
370
-1
 48
1.0
  6
BYLAYER
 10
-50.0
 20
167.0
 30
0.0
 11
-50.0
 21
164.0
 31
0.0
  0
LINE
  5
F6
100
AcDbEntity
100
AcDbLine
  8
Enclosure Cut
 62
256
370
-1
 48
1.0
  6
BYLAYER
 10
130.0
 20
167.0
 30
0.0
 11
130.0
 21
164.0
 31
0.0
  0
LINE
  5
F7
100
AcDbEntity
100
AcDbLine
  8
Enclosure Cut
 62
256
370
-1
 48
1.0
  6
BYLAYER
 10
-40.0
 20
167.0
 30
0.0
 11
-40.0
 21
164.0
 31
0.0
  0
LINE
  5
F8
100
AcDbEntity
100
AcDbLine
  8
Enclosure Cut
 62
256
370
-1
 48
1.0
  6
BYLAYER
 10
140.0
 20
167.0
 30
0.0
 11
140.0
 21
164.0
 31
0.0
  0
LINE
  5
F9
100
AcDbEntity
100
AcDbLine
  8
Enclosure Cut
 62
256
370
-1
 48
1.0
  6
BYLAYER
 10
119.99999999999999
 20
155.75
 30
0.0
 11
123.99999999999999
 21
155.75
 31
0.0
  0
LINE
  5
FA
100
AcDbEntity
100
AcDbLine
  8
Enclosure Cut
 62
256
370
-1
 48
1.0
  6
BYLAYER
 10
123.99999999999999
 20
155.75
 30
0.0
 11
123.99999999999999
 21
157.25
 31
0.0
  0
LINE
  5
FB
100
AcDbEntity
100
AcDbLine
  8
Enclosure Cut
 62
256
370
-1
 48
1.0
  6
BYLAYER
 10
123.99999999999999
 20
157.25
 30
0.0
 11
126.49999999999999
 21
157.25
 31
0.0
  0
LINE
  5
FC
100
AcDbEntity
100
AcDbLine
  8
Enclosure Cut
 62
256
370
-1
 48
1.0
  6
BYLAYER
 10
126.49999999999999
 20
157.25
 30
0.0
 11
126.49999999999999
 21
155.75
 31
0.0
  0
LINE
  5
FD
100
AcDbEntity
100
AcDbLine
  8
Enclosure Cut
 62
256
370
-1
 48
1.0
  6
BYLAYER
 10
126.49999999999999
 20
155.75
 30
0.0
 11
127.49999999999999
 21
155.75
 31
0.0
  0
LINE
  5
FE
100
AcDbEntity
100
AcDbLine
  8
Enclosure Cut
 62
256
370
-1
 48
1.0
  6
BYLAYER
 10
127.49999999999999
 20
155.75
 30
0.0
 11
127.49999999999999
 21
152.25
 31
0.0
  0
LINE
  5
FF
100
AcDbEntity
100
AcDbLine
  8
Enclosure Cut
 62
256
370
-1
 48
1.0
  6
BYLAYER
 10
127.49999999999999
 20
152.25
 30
0.0
 11
126.49999999999999
 21
152.25
 31
0.0
  0
LINE
  5
100
100
AcDbEntity
100
AcDbLine
  8
Enclosure Cut
 62
256
370
-1
 48
1.0
  6
BYLAYER
 10
126.49999999999999
 20
152.25
 30
0.0
 11
126.49999999999999
 21
150.75
 31
0.0
  0
LINE
  5
101
100
AcDbEntity
100
AcDbLine
  8
Enclosure Cut
 62
256
370
-1
 48
1.0
  6
BYLAYER
 10
126.49999999999999
 20
150.75
 30
0.0
 11
123.99999999999999
 21
150.75
 31
0.0
  0
LINE
  5
102
100
AcDbEntity
100
AcDbLine
  8
Enclosure Cut
 62
256
370
-1
 48
1.0
  6
BYLAYER
 10
123.99999999999999
 20
150.75
 30
0.0
 11
123.99999999999999
 21
152.25
 31
0.0
  0
LINE
  5
103
100
AcDbEntity
100
AcDbLine
  8
Enclosure Cut
 62
256
370
-1
 48
1.0
  6
BYLAYER
 10
123.99999999999999
 20
152.25
 30
0.0
 11
119.99999999999999
 21
152.25
 31
0.0
  0
LINE
  5
104
100
AcDbEntity
100
AcDbLine
  8
Enclosure Cut
 62
256
370
-1
 48
1.0
  6
BYLAYER
 10
0.0
 20
210.0
 30
0.0
 11
20.0
 21
210.0
 31
0.0
  0
LINE
  5
105
100
AcDbEntity
100
AcDbLine
  8
Enclosure Cut
 62
256
370
-1
 48
1.0
  6
BYLAYER
 10
90.0
 20
210.0
 30
0.0
 11
110.0
 21
210.0
 31
0.0
  0
LINE
  5
106
100
AcDbEntity
100
AcDbLine
  8
Enclosure Cut
 62
256
370
-1
 48
1.0
  6
BYLAYER
 10
29.999999999999996
 20
210.0
 30
0.0
 11
80.0
 21
210.0
 31
0.0
  0
LINE
  5
107
100
AcDbEntity
100
AcDbLine
  8
Enclosure Cut
 62
256
370
-1
 48
1.0
  6
BYLAYER
 10
110.0
 20
210.0
 30
0.0
 11
110.0
 21
210.0
 31
0.0
  0
LINE
  5
108
100
AcDbEntity
100
AcDbLine
  8
Enclosure Cut
 62
256
370
-1
 48
1.0
  6
BYLAYER
 10
110.0
 20
250.0
 30
0.0
 11
110.0
 21
260.0
 31
0.0
  0
LINE
  5
109
100
AcDbEntity
100
AcDbLine
  8
Enclosure Cut
 62
256
370
-1
 48
1.0
  6
BYLAYER
 10
110.0
 20
210.0
 30
0.0
 11
110.0
 21
220.0
 31
0.0
  0
LINE
  5
10A
100
AcDbEntity
100
AcDbLine
  8
Enclosure Cut
 62
256
370
-1
 48
1.0
  6
BYLAYER
 10
110.0
 20
260.0
 30
0.0
 11
0.0
 21
260.0
 31
0.0
  0
LINE
  5
10B
100
AcDbEntity
100
AcDbLine
  8
Enclosure Cut
 62
256
370
-1
 48
1.0
  6
BYLAYER
 10
0.0
 20
220.0
 30
0.0
 11
0.0
 21
210.0
 31
0.0
  0
LINE
  5
10C
100
AcDbEntity
100
AcDbLine
  8
Enclosure Cut
 62
256
370
-1
 48
1.0
  6
BYLAYER
 10
0.0
 20
260.0
 30
0.0
 11
0.0
 21
250.0
 31
0.0
  0
LINE
  5
10D
100
AcDbEntity
100
AcDbLine
  8
Enclosure Cut
 62
256
370
-1
 48
1.0
  6
BYLAYER
 10
0.0
 20
210.0
 30
0.0
 11
0.0
 21
210.0
 31
0.0
  0
LINE
  5
10E
100
AcDbEntity
100
AcDbLine
  8
Enclosure Cut
 62
256
370
-1
 48
1.0
  6
BYLAYER
 10
20.0
 20
200.0
 30
0.0
 11
30.0
 21
200.0
 31
0.0
  0
LINE
  5
10F
100
AcDbEntity
100
AcDbLine
  8
Enclosure Cut
 62
256
370
-1
 48
1.0
  6
BYLAYER
 10
80.0
 20
200.0
 30
0.0
 11
90.0
 21
200.0
 31
0.0
  0
LINE
  5
110
100
AcDbEntity
100
AcDbLine
  8
Enclosure Cut
 62
256
370
-1
 48
1.0
  6
BYLAYER
 10
80.0
 20
200.0
 30
0.0
 11
90.0
 21
200.0
 31
0.0
  0
LINE
  5
111
100
AcDbEntity
100
AcDbLine
  8
Enclosure Cut
 62
256
370
-1
 48
1.0
  6
BYLAYER
 10
30.0
 20
200.0
 30
0.0
 11
30.0
 21
210.0
 31
0.0
  0
LINE
  5
112
100
AcDbEntity
100
AcDbLine
  8
Enclosure Cut
 62
256
370
-1
 48
1.0
  6
BYLAYER
 10
90.0
 20
200.0
 30
0.0
 11
90.0
 21
210.0
 31
0.0
  0
LINE
  5
113
100
AcDbEntity
100
AcDbLine
  8
Enclosure Cut
 62
256
370
-1
 48
1.0
  6
BYLAYER
 10
90.0
 20
200.0
 30
0.0
 11
90.0
 21
210.0
 31
0.0
  0
LINE
  5
114
100
AcDbEntity
100
AcDbLine
  8
Enclosure Cut
 62
256
370
-1
 48
1.0
  6
BYLAYER
 10
20.0
 20
210.0
 30
0.0
 11
20.0
 21
210.0
 31
0.0
  0
LINE
  5
115
100
AcDbEntity
100
AcDbLine
  8
Enclosure Cut
 62
256
370
-1
 48
1.0
  6
BYLAYER
 10
20.0
 20
200.0
 30
0.0
 11
20.0
 21
210.0
 31
0.0
  0
LINE
  5
116
100
AcDbEntity
100
AcDbLine
  8
Enclosure Cut
 62
256
370
-1
 48
1.0
  6
BYLAYER
 10
80.0
 20
200.0
 30
0.0
 11
80.0
 21
210.0
 31
0.0
  0
LINE
  5
117
100
AcDbEntity
100
AcDbLine
  8
Enclosure Cut
 62
256
370
-1
 48
1.0
  6
BYLAYER
 10
80.0
 20
200.0
 30
0.0
 11
80.0
 21
210.0
 31
0.0
  0
LINE
  5
118
100
AcDbEntity
100
AcDbLine
  8
Enclosure Cut
 62
256
370
-1
 48
1.0
  6
BYLAYER
 10
9.0
 20
210.0
 30
0.0
 11
9.0
 21
210.0
 31
0.0
  0
LINE
  5
119
100
AcDbEntity
100
AcDbLine
  8
Enclosure Cut
 62
256
370
-1
 48
1.0
  6
BYLAYER
 10
110.0
 20
230.0
 30
0.0
 11
107.0
 21
230.0
 31
0.0
  0
LINE
  5
11A
100
AcDbEntity
100
AcDbLine
  8
Enclosure Cut
 62
256
370
-1
 48
1.0
  6
BYLAYER
 10
107.0
 20
230.0
 30
0.0
 11
107.0
 21
220.0
 31
0.0
  0
LINE
  5
11B
100
AcDbEntity
100
AcDbLine
  8
Enclosure Cut
 62
256
370
-1
 48
1.0
  6
BYLAYER
 10
107.0
 20
220.0
 30
0.0
 11
110.0
 21
220.0
 31
0.0
  0
LINE
  5
11C
100
AcDbEntity
100
AcDbLine
  8
Enclosure Cut
 62
256
370
-1
 48
1.0
  6
BYLAYER
 10
110.0
 20
220.0
 30
0.0
 11
110.0
 21
220.0
 31
0.0
  0
LINE
  5
11D
100
AcDbEntity
100
AcDbLine
  8
Enclosure Cut
 62
256
370
-1
 48
1.0
  6
BYLAYER
 10
0.0
 20
230.0
 30
0.0
 11
3.0
 21
230.0
 31
0.0
  0
LINE
  5
11E
100
AcDbEntity
100
AcDbLine
  8
Enclosure Cut
 62
256
370
-1
 48
1.0
  6
BYLAYER
 10
3.0
 20
240.0
 30
0.0
 11
0.0
 21
240.0
 31
0.0
  0
LINE
  5
11F
100
AcDbEntity
100
AcDbLine
  8
Enclosure Cut
 62
256
370
-1
 48
1.0
  6
BYLAYER
 10
0.0
 20
240.0
 30
0.0
 11
-0.0
 21
240.0
 31
0.0
  0
POINT
  5
120
100
AcDbEntity
100
AcDbPoint
  8
Enclosure Cut
 62
256
370
-1
 48
1.0
  6
BYLAYER
 10
14.110000000000014
 20
5.999999999999968
 30
0.0
  0
CIRCLE
  5
121
100
AcDbEntity
100
AcDbCircle
  8
HDD
 62
256
370
-1
 48
1.0
  6
BYLAYER
 10
102.62500000000001
 20
109.72
 30
0.0
 40
2.75
  0
CIRCLE
  5
122
100
AcDbEntity
100
AcDbCircle
  8
HDD
 62
256
370
-1
 48
1.0
  6
BYLAYER
 10
102.62500000000001
 20
65.269999999999982
 30
0.0
 40
2.75
  0
CIRCLE
  5
123
100
AcDbEntity
100
AcDbCircle
  8
HDD
 62
256
370
-1
 48
1.0
  6
BYLAYER
 10
7.375
 20
65.269999999999968
 30
0.0
 40
2.75
  0
CIRCLE
  5
124
100
AcDbEntity
100
AcDbCircle
  8
HDD
 62
256
370
-1
 48
1.0
  6
BYLAYER
 10
7.3749999999999858
 20
109.71999999999996
 30
0.0
 40
2.75
  0
POINT
  5
125
100
AcDbEntity
100
AcDbPoint
  8
Enclosure Cut
 62
256
370
-1
 48
1.0
  6
BYLAYER
 10
20.0
 20
167.0
 30
0.0
  0
POINT
  5
126
100
AcDbEntity
100
AcDbPoint
  8
Enclosure Cut
 62
256
370
-1
 48
1.0
  6
BYLAYER
 10
20.0
 20
164.0
 30
0.0
  0
POINT
  5
127
100
AcDbEntity
100
AcDbPoint
  8
Enclosure Cut
 62
256
370
-1
 48
1.0
  6
BYLAYER
 10
20.0
 20
167.0
 30
0.0
  0
LINE
  5
128
100
AcDbEntity
100
AcDbLine
  8
Enclosure Cut
 62
256
370
-1
 48
1.0
  6
BYLAYER
 10
20.0
 20
164.0
 30
0.0
 11
30.0
 21
164.0
 31
0.0
  0
LINE
  5
129
100
AcDbEntity
100
AcDbLine
  8
Enclosure Cut
 62
256
370
-1
 48
1.0
  6
BYLAYER
 10
30.0
 20
164.0
 30
0.0
 11
29.999999999999996
 21
167.0
 31
0.0
  0
LINE
  5
12A
100
AcDbEntity
100
AcDbLine
  8
Enclosure Cut
 62
256
370
-1
 48
1.0
  6
BYLAYER
 10
80.0
 20
167.0
 30
0.0
 11
80.0
 21
164.0
 31
0.0
  0
LINE
  5
12B
100
AcDbEntity
100
AcDbLine
  8
Enclosure Cut
 62
256
370
-1
 48
1.0
  6
BYLAYER
 10
80.0
 20
164.0
 30
0.0
 11
90.0
 21
164.0
 31
0.0
  0
LINE
  5
12C
100
AcDbEntity
100
AcDbLine
  8
Enclosure Cut
 62
256
370
-1
 48
1.0
  6
BYLAYER
 10
90.0
 20
164.0
 30
0.0
 11
90.0
 21
167.0
 31
0.0
  0
CIRCLE
  5
12D
100
AcDbEntity
100
AcDbCircle
  8
Enclosure Cut
 62
256
370
-1
 48
1.0
  6
BYLAYER
 10
108.5
 20
13.0
 30
0.0
 40
1.5
  0
CIRCLE
  5
12E
100
AcDbEntity
100
AcDbCircle
  8
Enclosure Cut
 62
256
370
-1
 48
1.0
  6
BYLAYER
 10
108.8
 20
154.0
 30
0.0
 40
1.75
  0
LINE
  5
12F
100
AcDbEntity
100
AcDbLine
  8
Enclosure Cut
 62
256
370
-1
 48
1.0
  6
BYLAYER
 10
20.0
 20
164.0
 30
0.0
 11
20.0
 21
167.0
 31
0.0
  0
LINE
  5
130
100
AcDbEntity
100
AcDbLine
  8
Enclosure Cut
 62
256
370
-1
 48
1.0
  6
BYLAYER
 10
20.0
 20
167.0
 30
0.0
 11
20.0
 21
167.0
 31
0.0
  0
LINE
  5
131
100
AcDbEntity
100
AcDbLine
  8
Enclosure Cut
 62
256
370
-1
 48
1.0
  6
BYLAYER
 10
-30.0
 20
164.0
 30
0.0
 11
-30.0
 21
167.0
 31
0.0
  0
LINE
  5
132
100
AcDbEntity
100
AcDbLine
  8
Enclosure Cut
 62
256
370
-1
 48
1.0
  6
BYLAYER
 10
150.0
 20
164.0
 30
0.0
 11
150.0
 21
167.0
 31
0.0
  0
LINE
  5
133
100
AcDbEntity
100
AcDbLine
  8
Enclosure Cut
 62
256
370
-1
 48
1.0
  6
BYLAYER
 10
-30.0
 20
167.0
 30
0.0
 11
-20.0
 21
167.0
 31
0.0
  0
LINE
  5
134
100
AcDbEntity
100
AcDbLine
  8
Enclosure Cut
 62
256
370
-1
 48
1.0
  6
BYLAYER
 10
150.0
 20
167.0
 30
0.0
 11
160.0
 21
167.0
 31
0.0
  0
LINE
  5
135
100
AcDbEntity
100
AcDbLine
  8
Enclosure Cut
 62
256
370
-1
 48
1.0
  6
BYLAYER
 10
-20.0
 20
167.0
 30
0.0
 11
-20.0
 21
164.0
 31
0.0
  0
LINE
  5
136
100
AcDbEntity
100
AcDbLine
  8
Enclosure Cut
 62
256
370
-1
 48
1.0
  6
BYLAYER
 10
160.0
 20
167.0
 30
0.0
 11
160.0
 21
164.0
 31
0.0
  0
LINE
  5
137
100
AcDbEntity
100
AcDbLine
  8
Enclosure Cut
 62
256
370
-1
 48
1.0
  6
BYLAYER
 10
90.0
 20
0.0
 30
0.0
 11
90.0
 21
3.0
 31
0.0
  0
LINE
  5
138
100
AcDbEntity
100
AcDbLine
  8
Enclosure Cut
 62
256
370
-1
 48
1.0
  6
BYLAYER
 10
80.0
 20
3.0
 30
0.0
 11
80.0
 21
0.0
 31
0.0
  0
LINE
  5
139
100
AcDbEntity
100
AcDbLine
  8
Enclosure Cut
 62
256
370
-1
 48
1.0
  6
BYLAYER
 10
80.0
 20
3.0
 30
0.0
 11
90.0
 21
3.0
 31
0.0
  0
LINE
  5
13A
100
AcDbEntity
100
AcDbLine
  8
Enclosure Cut
 62
256
370
-1
 48
1.0
  6
BYLAYER
 10
20.0
 20
0.0
 30
0.0
 11
20.0
 21
3.0
 31
0.0
  0
LINE
  5
13B
100
AcDbEntity
100
AcDbLine
  8
Enclosure Cut
 62
256
370
-1
 48
1.0
  6
BYLAYER
 10
30.0
 20
0.0
 30
0.0
 11
30.0
 21
3.0
 31
0.0
  0
LINE
  5
13C
100
AcDbEntity
100
AcDbLine
  8
Enclosure Cut
 62
256
370
-1
 48
1.0
  6
BYLAYER
 10
20.0
 20
3.0
 30
0.0
 11
30.0
 21
3.0
 31
0.0
  0
LINE
  5
13D
100
AcDbEntity
100
AcDbLine
  8
Enclosure Cut
 62
256
370
-1
 48
1.0
  6
BYLAYER
 10
130.0
 20
3.0
 30
0.0
 11
130.0
 21
0.0
 31
0.0
  0
LINE
  5
13E
100
AcDbEntity
100
AcDbLine
  8
Enclosure Cut
 62
256
370
-1
 48
1.0
  6
BYLAYER
 10
-50.0
 20
3.0
 30
0.0
 11
-50.0
 21
0.0
 31
0.0
  0
LINE
  5
13F
100
AcDbEntity
100
AcDbLine
  8
Enclosure Cut
 62
256
370
-1
 48
1.0
  6
BYLAYER
 10
130.0
 20
0.0
 30
0.0
 11
140.0
 21
0.0
 31
0.0
  0
LINE
  5
140
100
AcDbEntity
100
AcDbLine
  8
Enclosure Cut
 62
256
370
-1
 48
1.0
  6
BYLAYER
 10
-50.0
 20
0.0
 30
0.0
 11
-40.0
 21
0.0
 31
0.0
  0
LINE
  5
141
100
AcDbEntity
100
AcDbLine
  8
Enclosure Cut
 62
256
370
-1
 48
1.0
  6
BYLAYER
 10
140.0
 20
0.0
 30
0.0
 11
140.0
 21
3.0
 31
0.0
  0
LINE
  5
142
100
AcDbEntity
100
AcDbLine
  8
Enclosure Cut
 62
256
370
-1
 48
1.0
  6
BYLAYER
 10
-40.0
 20
0.0
 30
0.0
 11
-40.0
 21
3.0
 31
0.0
  0
LINE
  5
143
100
AcDbEntity
100
AcDbLine
  8
Enclosure Cut
 62
256
370
-1
 48
1.0
  6
BYLAYER
 10
140.0
 20
3.0
 30
0.0
 11
150.0
 21
3.0
 31
0.0
  0
LINE
  5
144
100
AcDbEntity
100
AcDbLine
  8
Enclosure Cut
 62
256
370
-1
 48
1.0
  6
BYLAYER
 10
-40.0
 20
3.0
 30
0.0
 11
-30.0
 21
3.0
 31
0.0
  0
LINE
  5
145
100
AcDbEntity
100
AcDbLine
  8
Enclosure Cut
 62
256
370
-1
 48
1.0
  6
BYLAYER
 10
150.0
 20
3.0
 30
0.0
 11
150.0
 21
0.0
 31
0.0
  0
LINE
  5
146
100
AcDbEntity
100
AcDbLine
  8
Enclosure Cut
 62
256
370
-1
 48
1.0
  6
BYLAYER
 10
-30.0
 20
3.0
 30
0.0
 11
-30.0
 21
0.0
 31
0.0
  0
LINE
  5
147
100
AcDbEntity
100
AcDbLine
  8
Enclosure Cut
 62
256
370
-1
 48
1.0
  6
BYLAYER
 10
150.0
 20
0.0
 30
0.0
 11
160.0
 21
0.0
 31
0.0
  0
LINE
  5
148
100
AcDbEntity
100
AcDbLine
  8
Enclosure Cut
 62
256
370
-1
 48
1.0
  6
BYLAYER
 10
-30.0
 20
0.0
 30
0.0
 11
-20.0
 21
0.0
 31
0.0
  0
LINE
  5
149
100
AcDbEntity
100
AcDbLine
  8
Enclosure Cut
 62
256
370
-1
 48
1.0
  6
BYLAYER
 10
160.0
 20
0.0
 30
0.0
 11
160.0
 21
3.0
 31
0.0
  0
LINE
  5
14A
100
AcDbEntity
100
AcDbLine
  8
Enclosure Cut
 62
256
370
-1
 48
1.0
  6
BYLAYER
 10
-20.0
 20
0.0
 30
0.0
 11
-20.0
 21
3.0
 31
0.0
  0
LINE
  5
14B
100
AcDbEntity
100
AcDbLine
  8
Enclosure Cut
 62
256
370
-1
 48
1.0
  6
BYLAYER
 10
148.0
 20
56.0
 30
0.0
 11
163.0
 21
56.0
 31
0.0
  0
LINE
  5
14C
100
AcDbEntity
100
AcDbLine
  8
Enclosure Cut
 62
256
370
-1
 48
1.0
  6
BYLAYER
 10
148.0
 20
56.0
 30
0.0
 11
163.0
 21
56.0
 31
0.0
  0
LINE
  5
14D
100
AcDbEntity
100
AcDbLine
  8
Enclosure Cut
 62
256
370
-1
 48
1.0
  6
BYLAYER
 10
163.0
 20
56.0
 30
0.0
 11
163.0
 21
38.0
 31
0.0
  0
LINE
  5
14E
100
AcDbEntity
100
AcDbLine
  8
Enclosure Cut
 62
256
370
-1
 48
1.0
  6
BYLAYER
 10
163.0
 20
56.0
 30
0.0
 11
163.0
 21
38.0
 31
0.0
  0
LINE
  5
14F
100
AcDbEntity
100
AcDbLine
  8
Enclosure Cut
 62
256
370
-1
 48
1.0
  6
BYLAYER
 10
163.0
 20
38.0
 30
0.0
 11
148.0
 21
38.0
 31
0.0
  0
LINE
  5
150
100
AcDbEntity
100
AcDbLine
  8
Enclosure Cut
 62
256
370
-1
 48
1.0
  6
BYLAYER
 10
163.0
 20
38.0
 30
0.0
 11
148.0
 21
38.0
 31
0.0
  0
LINE
  5
151
100
AcDbEntity
100
AcDbLine
  8
Enclosure Cut
 62
256
370
-1
 48
1.0
  6
BYLAYER
 10
148.0
 20
38.0
 30
0.0
 11
148.0
 21
56.0
 31
0.0
  0
LINE
  5
152
100
AcDbEntity
100
AcDbLine
  8
Enclosure Cut
 62
256
370
-1
 48
1.0
  6
BYLAYER
 10
148.0
 20
38.0
 30
0.0
 11
148.0
 21
56.0
 31
0.0
  0
LINE
  5
153
100
AcDbEntity
100
AcDbLine
  8
Enclosure Cut
 62
256
370
-1
 48
1.0
  6
BYLAYER
 10
164.0
 20
20.0
 30
0.0
 11
149.0
 21
20.0
 31
0.0
  0
LINE
  5
154
100
AcDbEntity
100
AcDbLine
  8
Enclosure Cut
 62
256
370
-1
 48
1.0
  6
BYLAYER
 10
149.0
 20
20.0
 30
0.0
 11
149.0
 21
35.0
 31
0.0
  0
LINE
  5
155
100
AcDbEntity
100
AcDbLine
  8
Enclosure Cut
 62
256
370
-1
 48
1.0
  6
BYLAYER
 10
149.0
 20
35.0
 30
0.0
 11
164.0
 21
35.0
 31
0.0
  0
LINE
  5
156
100
AcDbEntity
100
AcDbLine
  8
Enclosure Cut
 62
256
370
-1
 48
1.0
  6
BYLAYER
 10
164.0
 20
35.0
 30
0.0
 11
164.0
 21
20.0
 31
0.0
  0
LINE
  5
157
100
AcDbEntity
100
AcDbLine
  8
Enclosure Cut
 62
256
370
-1
 48
1.0
  6
BYLAYER
 10
-56.0
 20
141.5
 30
0.0
 11
-37.0
 21
141.5
 31
0.0
  0
LINE
  5
158
100
AcDbEntity
100
AcDbLine
  8
Enclosure Cut
 62
256
370
-1
 48
1.0
  6
BYLAYER
 10
-56.0
 20
86.5
 30
0.0
 11
-37.0
 21
86.5
 31
0.0
  0
LINE
  5
159
100
AcDbEntity
100
AcDbLine
  8
Enclosure Cut
 62
256
370
-1
 48
1.0
  6
BYLAYER
 10
-56.0
 20
81.5
 30
0.0
 11
-37.0
 21
81.5
 31
0.0
  0
LINE
  5
15A
100
AcDbEntity
100
AcDbLine
  8
Enclosure Cut
 62
256
370
-1
 48
1.0
  6
BYLAYER
 10
-56.0
 20
96.5
 30
0.0
 11
-37.0
 21
96.5
 31
0.0
  0
LINE
  5
15B
100
AcDbEntity
100
AcDbLine
  8
Enclosure Cut
 62
256
370
-1
 48
1.0
  6
BYLAYER
 10
-56.0
 20
91.5
 30
0.0
 11
-37.0
 21
91.5
 31
0.0
  0
LINE
  5
15C
100
AcDbEntity
100
AcDbLine
  8
Enclosure Cut
 62
256
370
-1
 48
1.0
  6
BYLAYER
 10
-56.0
 20
106.5
 30
0.0
 11
-37.0
 21
106.5
 31
0.0
  0
LINE
  5
15D
100
AcDbEntity
100
AcDbLine
  8
Enclosure Cut
 62
256
370
-1
 48
1.0
  6
BYLAYER
 10
-56.0
 20
101.5
 30
0.0
 11
-37.0
 21
101.5
 31
0.0
  0
LINE
  5
15E
100
AcDbEntity
100
AcDbLine
  8
Enclosure Cut
 62
256
370
-1
 48
1.0
  6
BYLAYER
 10
-56.0
 20
116.5
 30
0.0
 11
-37.0
 21
116.5
 31
0.0
  0
LINE
  5
15F
100
AcDbEntity
100
AcDbLine
  8
Enclosure Cut
 62
256
370
-1
 48
1.0
  6
BYLAYER
 10
-56.0
 20
111.5
 30
0.0
 11
-37.0
 21
111.5
 31
0.0
  0
LINE
  5
160
100
AcDbEntity
100
AcDbLine
  8
Enclosure Cut
 62
256
370
-1
 48
1.0
  6
BYLAYER
 10
-56.0
 20
126.5
 30
0.0
 11
-37.0
 21
126.5
 31
0.0
  0
LINE
  5
161
100
AcDbEntity
100
AcDbLine
  8
Enclosure Cut
 62
256
370
-1
 48
1.0
  6
BYLAYER
 10
-56.0
 20
121.5
 30
0.0
 11
-37.0
 21
121.5
 31
0.0
  0
LINE
  5
162
100
AcDbEntity
100
AcDbLine
  8
Enclosure Cut
 62
256
370
-1
 48
1.0
  6
BYLAYER
 10
-56.0
 20
136.5
 30
0.0
 11
-37.0
 21
136.5
 31
0.0
  0
LINE
  5
163
100
AcDbEntity
100
AcDbLine
  8
Enclosure Cut
 62
256
370
-1
 48
1.0
  6
BYLAYER
 10
-56.0
 20
131.5
 30
0.0
 11
-37.0
 21
131.5
 31
0.0
  0
LINE
  5
164
100
AcDbEntity
100
AcDbLine
  8
Enclosure Cut
 62
256
370
-1
 48
1.0
  6
BYLAYER
 10
-56.0
 20
16.5
 30
0.0
 11
-37.0
 21
16.5
 31
0.0
  0
LINE
  5
165
100
AcDbEntity
100
AcDbLine
  8
Enclosure Cut
 62
256
370
-1
 48
1.0
  6
BYLAYER
 10
-56.0
 20
26.5
 30
0.0
 11
-37.0
 21
26.5
 31
0.0
  0
LINE
  5
166
100
AcDbEntity
100
AcDbLine
  8
Enclosure Cut
 62
256
370
-1
 48
1.0
  6
BYLAYER
 10
-56.0
 20
21.5
 30
0.0
 11
-37.0
 21
21.5
 31
0.0
  0
LINE
  5
167
100
AcDbEntity
100
AcDbLine
  8
Enclosure Cut
 62
256
370
-1
 48
1.0
  6
BYLAYER
 10
-56.0
 20
36.5
 30
0.0
 11
-37.0
 21
36.5
 31
0.0
  0
LINE
  5
168
100
AcDbEntity
100
AcDbLine
  8
Enclosure Cut
 62
256
370
-1
 48
1.0
  6
BYLAYER
 10
-56.0
 20
31.5
 30
0.0
 11
-37.0
 21
31.5
 31
0.0
  0
LINE
  5
169
100
AcDbEntity
100
AcDbLine
  8
Enclosure Cut
 62
256
370
-1
 48
1.0
  6
BYLAYER
 10
-56.0
 20
46.5
 30
0.0
 11
-37.0
 21
46.5
 31
0.0
  0
LINE
  5
16A
100
AcDbEntity
100
AcDbLine
  8
Enclosure Cut
 62
256
370
-1
 48
1.0
  6
BYLAYER
 10
-56.0
 20
41.5
 30
0.0
 11
-37.0
 21
41.5
 31
0.0
  0
LINE
  5
16B
100
AcDbEntity
100
AcDbLine
  8
Enclosure Cut
 62
256
370
-1
 48
1.0
  6
BYLAYER
 10
-56.0
 20
56.5
 30
0.0
 11
-37.0
 21
56.5
 31
0.0
  0
LINE
  5
16C
100
AcDbEntity
100
AcDbLine
  8
Enclosure Cut
 62
256
370
-1
 48
1.0
  6
BYLAYER
 10
-56.0
 20
51.5
 30
0.0
 11
-37.0
 21
51.5
 31
0.0
  0
LINE
  5
16D
100
AcDbEntity
100
AcDbLine
  8
Enclosure Cut
 62
256
370
-1
 48
1.0
  6
BYLAYER
 10
-56.0
 20
66.5
 30
0.0
 11
-37.0
 21
66.5
 31
0.0
  0
LINE
  5
16E
100
AcDbEntity
100
AcDbLine
  8
Enclosure Cut
 62
256
370
-1
 48
1.0
  6
BYLAYER
 10
-56.0
 20
61.5
 30
0.0
 11
-37.0
 21
61.5
 31
0.0
  0
LINE
  5
16F
100
AcDbEntity
100
AcDbLine
  8
Enclosure Cut
 62
256
370
-1
 48
1.0
  6
BYLAYER
 10
-56.0
 20
76.5
 30
0.0
 11
-37.0
 21
76.5
 31
0.0
  0
LINE
  5
170
100
AcDbEntity
100
AcDbLine
  8
Enclosure Cut
 62
256
370
-1
 48
1.0
  6
BYLAYER
 10
-56.0
 20
71.5
 30
0.0
 11
-37.0
 21
71.5
 31
0.0
  0
LINE
  5
171
100
AcDbEntity
100
AcDbLine
  8
Enclosure Cut
 62
256
370
-1
 48
1.0
  6
BYLAYER
 10
-36.0
 20
140.5
 30
0.0
 11
-36.0
 21
139.5
 31
0.0
  0
LINE
  5
172
100
AcDbEntity
100
AcDbLine
  8
Enclosure Cut
 62
256
370
-1
 48
1.0
  6
BYLAYER
 10
-36.0
 20
85.5
 30
0.0
 11
-36.0
 21
84.5
 31
0.0
  0
LINE
  5
173
100
AcDbEntity
100
AcDbLine
  8
Enclosure Cut
 62
256
370
-1
 48
1.0
  6
BYLAYER
 10
-36.0
 20
80.5
 30
0.0
 11
-36.0
 21
79.5
 31
0.0
  0
LINE
  5
174
100
AcDbEntity
100
AcDbLine
  8
Enclosure Cut
 62
256
370
-1
 48
1.0
  6
BYLAYER
 10
-36.0
 20
95.5
 30
0.0
 11
-36.0
 21
94.5
 31
0.0
  0
LINE
  5
175
100
AcDbEntity
100
AcDbLine
  8
Enclosure Cut
 62
256
370
-1
 48
1.0
  6
BYLAYER
 10
-36.0
 20
90.5
 30
0.0
 11
-36.0
 21
89.5
 31
0.0
  0
LINE
  5
176
100
AcDbEntity
100
AcDbLine
  8
Enclosure Cut
 62
256
370
-1
 48
1.0
  6
BYLAYER
 10
-36.0
 20
105.5
 30
0.0
 11
-36.0
 21
104.5
 31
0.0
  0
LINE
  5
177
100
AcDbEntity
100
AcDbLine
  8
Enclosure Cut
 62
256
370
-1
 48
1.0
  6
BYLAYER
 10
-36.0
 20
100.5
 30
0.0
 11
-36.0
 21
99.5
 31
0.0
  0
LINE
  5
178
100
AcDbEntity
100
AcDbLine
  8
Enclosure Cut
 62
256
370
-1
 48
1.0
  6
BYLAYER
 10
-36.0
 20
115.5
 30
0.0
 11
-36.0
 21
114.5
 31
0.0
  0
LINE
  5
179
100
AcDbEntity
100
AcDbLine
  8
Enclosure Cut
 62
256
370
-1
 48
1.0
  6
BYLAYER
 10
-36.0
 20
110.5
 30
0.0
 11
-36.0
 21
109.5
 31
0.0
  0
LINE
  5
17A
100
AcDbEntity
100
AcDbLine
  8
Enclosure Cut
 62
256
370
-1
 48
1.0
  6
BYLAYER
 10
-36.0
 20
125.5
 30
0.0
 11
-36.0
 21
124.5
 31
0.0
  0
LINE
  5
17B
100
AcDbEntity
100
AcDbLine
  8
Enclosure Cut
 62
256
370
-1
 48
1.0
  6
BYLAYER
 10
-36.0
 20
120.5
 30
0.0
 11
-36.0
 21
119.5
 31
0.0
  0
LINE
  5
17C
100
AcDbEntity
100
AcDbLine
  8
Enclosure Cut
 62
256
370
-1
 48
1.0
  6
BYLAYER
 10
-36.0
 20
135.5
 30
0.0
 11
-36.0
 21
134.5
 31
0.0
  0
LINE
  5
17D
100
AcDbEntity
100
AcDbLine
  8
Enclosure Cut
 62
256
370
-1
 48
1.0
  6
BYLAYER
 10
-36.0
 20
130.5
 30
0.0
 11
-36.0
 21
129.5
 31
0.0
  0
LINE
  5
17E
100
AcDbEntity
100
AcDbLine
  8
Enclosure Cut
 62
256
370
-1
 48
1.0
  6
BYLAYER
 10
-36.0
 20
15.5
 30
0.0
 11
-36.0
 21
14.5
 31
0.0
  0
LINE
  5
17F
100
AcDbEntity
100
AcDbLine
  8
Enclosure Cut
 62
256
370
-1
 48
1.0
  6
BYLAYER
 10
-36.0
 20
25.5
 30
0.0
 11
-36.0
 21
24.5
 31
0.0
  0
LINE
  5
180
100
AcDbEntity
100
AcDbLine
  8
Enclosure Cut
 62
256
370
-1
 48
1.0
  6
BYLAYER
 10
-36.0
 20
20.5
 30
0.0
 11
-36.0
 21
19.5
 31
0.0
  0
LINE
  5
181
100
AcDbEntity
100
AcDbLine
  8
Enclosure Cut
 62
256
370
-1
 48
1.0
  6
BYLAYER
 10
-36.0
 20
35.5
 30
0.0
 11
-36.0
 21
34.5
 31
0.0
  0
LINE
  5
182
100
AcDbEntity
100
AcDbLine
  8
Enclosure Cut
 62
256
370
-1
 48
1.0
  6
BYLAYER
 10
-36.0
 20
30.5
 30
0.0
 11
-36.0
 21
29.5
 31
0.0
  0
LINE
  5
183
100
AcDbEntity
100
AcDbLine
  8
Enclosure Cut
 62
256
370
-1
 48
1.0
  6
BYLAYER
 10
-36.0
 20
45.5
 30
0.0
 11
-36.0
 21
44.5
 31
0.0
  0
LINE
  5
184
100
AcDbEntity
100
AcDbLine
  8
Enclosure Cut
 62
256
370
-1
 48
1.0
  6
BYLAYER
 10
-36.0
 20
40.5
 30
0.0
 11
-36.0
 21
39.5
 31
0.0
  0
LINE
  5
185
100
AcDbEntity
100
AcDbLine
  8
Enclosure Cut
 62
256
370
-1
 48
1.0
  6
BYLAYER
 10
-36.0
 20
55.5
 30
0.0
 11
-36.0
 21
54.5
 31
0.0
  0
LINE
  5
186
100
AcDbEntity
100
AcDbLine
  8
Enclosure Cut
 62
256
370
-1
 48
1.0
  6
BYLAYER
 10
-36.0
 20
50.5
 30
0.0
 11
-36.0
 21
49.5
 31
0.0
  0
LINE
  5
187
100
AcDbEntity
100
AcDbLine
  8
Enclosure Cut
 62
256
370
-1
 48
1.0
  6
BYLAYER
 10
-36.0
 20
65.5
 30
0.0
 11
-36.0
 21
64.5
 31
0.0
  0
LINE
  5
188
100
AcDbEntity
100
AcDbLine
  8
Enclosure Cut
 62
256
370
-1
 48
1.0
  6
BYLAYER
 10
-36.0
 20
60.5
 30
0.0
 11
-36.0
 21
59.5
 31
0.0
  0
LINE
  5
189
100
AcDbEntity
100
AcDbLine
  8
Enclosure Cut
 62
256
370
-1
 48
1.0
  6
BYLAYER
 10
-36.0
 20
75.5
 30
0.0
 11
-36.0
 21
74.5
 31
0.0
  0
LINE
  5
18A
100
AcDbEntity
100
AcDbLine
  8
Enclosure Cut
 62
256
370
-1
 48
1.0
  6
BYLAYER
 10
-36.0
 20
70.5
 30
0.0
 11
-36.0
 21
69.5
 31
0.0
  0
LINE
  5
18B
100
AcDbEntity
100
AcDbLine
  8
Enclosure Cut
 62
256
370
-1
 48
1.0
  6
BYLAYER
 10
-37.0
 20
138.5
 30
0.0
 11
-56.0
 21
138.5
 31
0.0
  0
LINE
  5
18C
100
AcDbEntity
100
AcDbLine
  8
Enclosure Cut
 62
256
370
-1
 48
1.0
  6
BYLAYER
 10
-37.0
 20
83.5
 30
0.0
 11
-56.0
 21
83.5
 31
0.0
  0
LINE
  5
18D
100
AcDbEntity
100
AcDbLine
  8
Enclosure Cut
 62
256
370
-1
 48
1.0
  6
BYLAYER
 10
-37.0
 20
78.5
 30
0.0
 11
-56.0
 21
78.5
 31
0.0
  0
LINE
  5
18E
100
AcDbEntity
100
AcDbLine
  8
Enclosure Cut
 62
256
370
-1
 48
1.0
  6
BYLAYER
 10
-37.0
 20
93.5
 30
0.0
 11
-56.0
 21
93.5
 31
0.0
  0
LINE
  5
18F
100
AcDbEntity
100
AcDbLine
  8
Enclosure Cut
 62
256
370
-1
 48
1.0
  6
BYLAYER
 10
-37.0
 20
88.5
 30
0.0
 11
-56.0
 21
88.5
 31
0.0
  0
LINE
  5
190
100
AcDbEntity
100
AcDbLine
  8
Enclosure Cut
 62
256
370
-1
 48
1.0
  6
BYLAYER
 10
-37.0
 20
103.5
 30
0.0
 11
-56.0
 21
103.5
 31
0.0
  0
LINE
  5
191
100
AcDbEntity
100
AcDbLine
  8
Enclosure Cut
 62
256
370
-1
 48
1.0
  6
BYLAYER
 10
-37.0
 20
98.5
 30
0.0
 11
-56.0
 21
98.5
 31
0.0
  0
LINE
  5
192
100
AcDbEntity
100
AcDbLine
  8
Enclosure Cut
 62
256
370
-1
 48
1.0
  6
BYLAYER
 10
-37.0
 20
113.5
 30
0.0
 11
-56.0
 21
113.5
 31
0.0
  0
LINE
  5
193
100
AcDbEntity
100
AcDbLine
  8
Enclosure Cut
 62
256
370
-1
 48
1.0
  6
BYLAYER
 10
-37.0
 20
108.5
 30
0.0
 11
-56.0
 21
108.5
 31
0.0
  0
LINE
  5
194
100
AcDbEntity
100
AcDbLine
  8
Enclosure Cut
 62
256
370
-1
 48
1.0
  6
BYLAYER
 10
-37.0
 20
123.5
 30
0.0
 11
-56.0
 21
123.5
 31
0.0
  0
LINE
  5
195
100
AcDbEntity
100
AcDbLine
  8
Enclosure Cut
 62
256
370
-1
 48
1.0
  6
BYLAYER
 10
-37.0
 20
118.5
 30
0.0
 11
-56.0
 21
118.5
 31
0.0
  0
LINE
  5
196
100
AcDbEntity
100
AcDbLine
  8
Enclosure Cut
 62
256
370
-1
 48
1.0
  6
BYLAYER
 10
-37.0
 20
133.5
 30
0.0
 11
-56.0
 21
133.5
 31
0.0
  0
LINE
  5
197
100
AcDbEntity
100
AcDbLine
  8
Enclosure Cut
 62
256
370
-1
 48
1.0
  6
BYLAYER
 10
-37.0
 20
128.5
 30
0.0
 11
-56.0
 21
128.5
 31
0.0
  0
LINE
  5
198
100
AcDbEntity
100
AcDbLine
  8
Enclosure Cut
 62
256
370
-1
 48
1.0
  6
BYLAYER
 10
-37.0
 20
13.5
 30
0.0
 11
-56.0
 21
13.5
 31
0.0
  0
LINE
  5
199
100
AcDbEntity
100
AcDbLine
  8
Enclosure Cut
 62
256
370
-1
 48
1.0
  6
BYLAYER
 10
-37.0
 20
23.5
 30
0.0
 11
-56.0
 21
23.5
 31
0.0
  0
LINE
  5
19A
100
AcDbEntity
100
AcDbLine
  8
Enclosure Cut
 62
256
370
-1
 48
1.0
  6
BYLAYER
 10
-37.0
 20
18.5
 30
0.0
 11
-56.0
 21
18.5
 31
0.0
  0
LINE
  5
19B
100
AcDbEntity
100
AcDbLine
  8
Enclosure Cut
 62
256
370
-1
 48
1.0
  6
BYLAYER
 10
-37.0
 20
33.5
 30
0.0
 11
-56.0
 21
33.5
 31
0.0
  0
LINE
  5
19C
100
AcDbEntity
100
AcDbLine
  8
Enclosure Cut
 62
256
370
-1
 48
1.0
  6
BYLAYER
 10
-37.0
 20
28.5
 30
0.0
 11
-56.0
 21
28.5
 31
0.0
  0
LINE
  5
19D
100
AcDbEntity
100
AcDbLine
  8
Enclosure Cut
 62
256
370
-1
 48
1.0
  6
BYLAYER
 10
-37.0
 20
43.5
 30
0.0
 11
-56.0
 21
43.5
 31
0.0
  0
LINE
  5
19E
100
AcDbEntity
100
AcDbLine
  8
Enclosure Cut
 62
256
370
-1
 48
1.0
  6
BYLAYER
 10
-37.0
 20
38.5
 30
0.0
 11
-56.0
 21
38.5
 31
0.0
  0
LINE
  5
19F
100
AcDbEntity
100
AcDbLine
  8
Enclosure Cut
 62
256
370
-1
 48
1.0
  6
BYLAYER
 10
-37.0
 20
53.5
 30
0.0
 11
-56.0
 21
53.5
 31
0.0
  0
LINE
  5
1A0
100
AcDbEntity
100
AcDbLine
  8
Enclosure Cut
 62
256
370
-1
 48
1.0
  6
BYLAYER
 10
-37.0
 20
48.5
 30
0.0
 11
-56.0
 21
48.5
 31
0.0
  0
LINE
  5
1A1
100
AcDbEntity
100
AcDbLine
  8
Enclosure Cut
 62
256
370
-1
 48
1.0
  6
BYLAYER
 10
-37.0
 20
63.5
 30
0.0
 11
-56.0
 21
63.5
 31
0.0
  0
LINE
  5
1A2
100
AcDbEntity
100
AcDbLine
  8
Enclosure Cut
 62
256
370
-1
 48
1.0
  6
BYLAYER
 10
-37.0
 20
58.5
 30
0.0
 11
-56.0
 21
58.5
 31
0.0
  0
LINE
  5
1A3
100
AcDbEntity
100
AcDbLine
  8
Enclosure Cut
 62
256
370
-1
 48
1.0
  6
BYLAYER
 10
-37.0
 20
73.5
 30
0.0
 11
-56.0
 21
73.5
 31
0.0
  0
LINE
  5
1A4
100
AcDbEntity
100
AcDbLine
  8
Enclosure Cut
 62
256
370
-1
 48
1.0
  6
BYLAYER
 10
-37.0
 20
68.5
 30
0.0
 11
-56.0
 21
68.5
 31
0.0
  0
LINE
  5
1A5
100
AcDbEntity
100
AcDbLine
  8
Enclosure Cut
 62
256
370
-1
 48
1.0
  6
BYLAYER
 10
-57.0
 20
139.5
 30
0.0
 11
-57.0
 21
140.5
 31
0.0
  0
LINE
  5
1A6
100
AcDbEntity
100
AcDbLine
  8
Enclosure Cut
 62
256
370
-1
 48
1.0
  6
BYLAYER
 10
-57.0
 20
84.5
 30
0.0
 11
-57.0
 21
85.5
 31
0.0
  0
LINE
  5
1A7
100
AcDbEntity
100
AcDbLine
  8
Enclosure Cut
 62
256
370
-1
 48
1.0
  6
BYLAYER
 10
-57.0
 20
79.5
 30
0.0
 11
-57.0
 21
80.5
 31
0.0
  0
LINE
  5
1A8
100
AcDbEntity
100
AcDbLine
  8
Enclosure Cut
 62
256
370
-1
 48
1.0
  6
BYLAYER
 10
-57.0
 20
94.5
 30
0.0
 11
-57.0
 21
95.5
 31
0.0
  0
LINE
  5
1A9
100
AcDbEntity
100
AcDbLine
  8
Enclosure Cut
 62
256
370
-1
 48
1.0
  6
BYLAYER
 10
-57.0
 20
89.5
 30
0.0
 11
-57.0
 21
90.5
 31
0.0
  0
LINE
  5
1AA
100
AcDbEntity
100
AcDbLine
  8
Enclosure Cut
 62
256
370
-1
 48
1.0
  6
BYLAYER
 10
-57.0
 20
104.5
 30
0.0
 11
-57.0
 21
105.5
 31
0.0
  0
LINE
  5
1AB
100
AcDbEntity
100
AcDbLine
  8
Enclosure Cut
 62
256
370
-1
 48
1.0
  6
BYLAYER
 10
-57.0
 20
99.5
 30
0.0
 11
-57.0
 21
100.5
 31
0.0
  0
LINE
  5
1AC
100
AcDbEntity
100
AcDbLine
  8
Enclosure Cut
 62
256
370
-1
 48
1.0
  6
BYLAYER
 10
-57.0
 20
114.5
 30
0.0
 11
-57.0
 21
115.5
 31
0.0
  0
LINE
  5
1AD
100
AcDbEntity
100
AcDbLine
  8
Enclosure Cut
 62
256
370
-1
 48
1.0
  6
BYLAYER
 10
-57.0
 20
109.5
 30
0.0
 11
-57.0
 21
110.5
 31
0.0
  0
LINE
  5
1AE
100
AcDbEntity
100
AcDbLine
  8
Enclosure Cut
 62
256
370
-1
 48
1.0
  6
BYLAYER
 10
-57.0
 20
124.5
 30
0.0
 11
-57.0
 21
125.5
 31
0.0
  0
LINE
  5
1AF
100
AcDbEntity
100
AcDbLine
  8
Enclosure Cut
 62
256
370
-1
 48
1.0
  6
BYLAYER
 10
-57.0
 20
119.5
 30
0.0
 11
-57.0
 21
120.5
 31
0.0
  0
LINE
  5
1B0
100
AcDbEntity
100
AcDbLine
  8
Enclosure Cut
 62
256
370
-1
 48
1.0
  6
BYLAYER
 10
-57.0
 20
134.5
 30
0.0
 11
-57.0
 21
135.5
 31
0.0
  0
LINE
  5
1B1
100
AcDbEntity
100
AcDbLine
  8
Enclosure Cut
 62
256
370
-1
 48
1.0
  6
BYLAYER
 10
-57.0
 20
129.5
 30
0.0
 11
-57.0
 21
130.5
 31
0.0
  0
LINE
  5
1B2
100
AcDbEntity
100
AcDbLine
  8
Enclosure Cut
 62
256
370
-1
 48
1.0
  6
BYLAYER
 10
-57.0
 20
14.5
 30
0.0
 11
-57.0
 21
15.5
 31
0.0
  0
LINE
  5
1B3
100
AcDbEntity
100
AcDbLine
  8
Enclosure Cut
 62
256
370
-1
 48
1.0
  6
BYLAYER
 10
-57.0
 20
24.5
 30
0.0
 11
-57.0
 21
25.5
 31
0.0
  0
LINE
  5
1B4
100
AcDbEntity
100
AcDbLine
  8
Enclosure Cut
 62
256
370
-1
 48
1.0
  6
BYLAYER
 10
-57.0
 20
19.5
 30
0.0
 11
-57.0
 21
20.5
 31
0.0
  0
LINE
  5
1B5
100
AcDbEntity
100
AcDbLine
  8
Enclosure Cut
 62
256
370
-1
 48
1.0
  6
BYLAYER
 10
-57.0
 20
34.5
 30
0.0
 11
-57.0
 21
35.5
 31
0.0
  0
LINE
  5
1B6
100
AcDbEntity
100
AcDbLine
  8
Enclosure Cut
 62
256
370
-1
 48
1.0
  6
BYLAYER
 10
-57.0
 20
29.5
 30
0.0
 11
-57.0
 21
30.5
 31
0.0
  0
LINE
  5
1B7
100
AcDbEntity
100
AcDbLine
  8
Enclosure Cut
 62
256
370
-1
 48
1.0
  6
BYLAYER
 10
-57.0
 20
44.5
 30
0.0
 11
-57.0
 21
45.5
 31
0.0
  0
LINE
  5
1B8
100
AcDbEntity
100
AcDbLine
  8
Enclosure Cut
 62
256
370
-1
 48
1.0
  6
BYLAYER
 10
-57.0
 20
39.5
 30
0.0
 11
-57.0
 21
40.5
 31
0.0
  0
LINE
  5
1B9
100
AcDbEntity
100
AcDbLine
  8
Enclosure Cut
 62
256
370
-1
 48
1.0
  6
BYLAYER
 10
-57.0
 20
54.5
 30
0.0
 11
-57.0
 21
55.5
 31
0.0
  0
LINE
  5
1BA
100
AcDbEntity
100
AcDbLine
  8
Enclosure Cut
 62
256
370
-1
 48
1.0
  6
BYLAYER
 10
-57.0
 20
49.5
 30
0.0
 11
-57.0
 21
50.5
 31
0.0
  0
LINE
  5
1BB
100
AcDbEntity
100
AcDbLine
  8
Enclosure Cut
 62
256
370
-1
 48
1.0
  6
BYLAYER
 10
-57.0
 20
64.5
 30
0.0
 11
-57.0
 21
65.5
 31
0.0
  0
LINE
  5
1BC
100
AcDbEntity
100
AcDbLine
  8
Enclosure Cut
 62
256
370
-1
 48
1.0
  6
BYLAYER
 10
-57.0
 20
59.5
 30
0.0
 11
-57.0
 21
60.5
 31
0.0
  0
LINE
  5
1BD
100
AcDbEntity
100
AcDbLine
  8
Enclosure Cut
 62
256
370
-1
 48
1.0
  6
BYLAYER
 10
-57.0
 20
74.5
 30
0.0
 11
-57.0
 21
75.5
 31
0.0
  0
LINE
  5
1BE
100
AcDbEntity
100
AcDbLine
  8
Enclosure Cut
 62
256
370
-1
 48
1.0
  6
BYLAYER
 10
-57.0
 20
69.5
 30
0.0
 11
-57.0
 21
70.5
 31
0.0
  0
ARC
  5
1BF
100
AcDbEntity
  8
Enclosure Cut
 62
256
370
-1
 48
1.0
  6
BYLAYER
100
AcDbCircle
 10
-37.0
 20
140.5
 30
0.0
 40
1.0
100
AcDbArc
 50
0.0
 51
90.0
  0
ARC
  5
1C0
100
AcDbEntity
  8
Enclosure Cut
 62
256
370
-1
 48
1.0
  6
BYLAYER
100
AcDbCircle
 10
-37.0
 20
85.5
 30
0.0
 40
1.0
100
AcDbArc
 50
0.0
 51
90.0
  0
ARC
  5
1C1
100
AcDbEntity
  8
Enclosure Cut
 62
256
370
-1
 48
1.0
  6
BYLAYER
100
AcDbCircle
 10
-37.0
 20
80.5
 30
0.0
 40
1.0
100
AcDbArc
 50
0.0
 51
90.0
  0
ARC
  5
1C2
100
AcDbEntity
  8
Enclosure Cut
 62
256
370
-1
 48
1.0
  6
BYLAYER
100
AcDbCircle
 10
-37.0
 20
95.5
 30
0.0
 40
1.0
100
AcDbArc
 50
0.0
 51
90.0
  0
ARC
  5
1C3
100
AcDbEntity
  8
Enclosure Cut
 62
256
370
-1
 48
1.0
  6
BYLAYER
100
AcDbCircle
 10
-37.0
 20
90.5
 30
0.0
 40
1.0
100
AcDbArc
 50
0.0
 51
90.0
  0
ARC
  5
1C4
100
AcDbEntity
  8
Enclosure Cut
 62
256
370
-1
 48
1.0
  6
BYLAYER
100
AcDbCircle
 10
-37.0
 20
105.5
 30
0.0
 40
1.0
100
AcDbArc
 50
0.0
 51
90.0
  0
ARC
  5
1C5
100
AcDbEntity
  8
Enclosure Cut
 62
256
370
-1
 48
1.0
  6
BYLAYER
100
AcDbCircle
 10
-37.0
 20
100.5
 30
0.0
 40
1.0
100
AcDbArc
 50
0.0
 51
90.0
  0
ARC
  5
1C6
100
AcDbEntity
  8
Enclosure Cut
 62
256
370
-1
 48
1.0
  6
BYLAYER
100
AcDbCircle
 10
-37.0
 20
115.5
 30
0.0
 40
1.0
100
AcDbArc
 50
0.0
 51
90.0
  0
ARC
  5
1C7
100
AcDbEntity
  8
Enclosure Cut
 62
256
370
-1
 48
1.0
  6
BYLAYER
100
AcDbCircle
 10
-37.0
 20
110.5
 30
0.0
 40
1.0
100
AcDbArc
 50
0.0
 51
90.0
  0
ARC
  5
1C8
100
AcDbEntity
  8
Enclosure Cut
 62
256
370
-1
 48
1.0
  6
BYLAYER
100
AcDbCircle
 10
-37.0
 20
125.5
 30
0.0
 40
1.0
100
AcDbArc
 50
0.0
 51
90.0
  0
ARC
  5
1C9
100
AcDbEntity
  8
Enclosure Cut
 62
256
370
-1
 48
1.0
  6
BYLAYER
100
AcDbCircle
 10
-37.0
 20
120.5
 30
0.0
 40
1.0
100
AcDbArc
 50
0.0
 51
90.0
  0
ARC
  5
1CA
100
AcDbEntity
  8
Enclosure Cut
 62
256
370
-1
 48
1.0
  6
BYLAYER
100
AcDbCircle
 10
-37.0
 20
135.5
 30
0.0
 40
1.0
100
AcDbArc
 50
0.0
 51
90.0
  0
ARC
  5
1CB
100
AcDbEntity
  8
Enclosure Cut
 62
256
370
-1
 48
1.0
  6
BYLAYER
100
AcDbCircle
 10
-37.0
 20
130.5
 30
0.0
 40
1.0
100
AcDbArc
 50
0.0
 51
90.0
  0
ARC
  5
1CC
100
AcDbEntity
  8
Enclosure Cut
 62
256
370
-1
 48
1.0
  6
BYLAYER
100
AcDbCircle
 10
-37.0
 20
15.5
 30
0.0
 40
1.0
100
AcDbArc
 50
0.0
 51
90.0
  0
ARC
  5
1CD
100
AcDbEntity
  8
Enclosure Cut
 62
256
370
-1
 48
1.0
  6
BYLAYER
100
AcDbCircle
 10
-37.0
 20
25.5
 30
0.0
 40
1.0
100
AcDbArc
 50
0.0
 51
90.0
  0
ARC
  5
1CE
100
AcDbEntity
  8
Enclosure Cut
 62
256
370
-1
 48
1.0
  6
BYLAYER
100
AcDbCircle
 10
-37.0
 20
20.5
 30
0.0
 40
1.0
100
AcDbArc
 50
0.0
 51
90.0
  0
ARC
  5
1CF
100
AcDbEntity
  8
Enclosure Cut
 62
256
370
-1
 48
1.0
  6
BYLAYER
100
AcDbCircle
 10
-37.0
 20
35.5
 30
0.0
 40
1.0
100
AcDbArc
 50
0.0
 51
90.0
  0
ARC
  5
1D0
100
AcDbEntity
  8
Enclosure Cut
 62
256
370
-1
 48
1.0
  6
BYLAYER
100
AcDbCircle
 10
-37.0
 20
30.5
 30
0.0
 40
1.0
100
AcDbArc
 50
0.0
 51
90.0
  0
ARC
  5
1D1
100
AcDbEntity
  8
Enclosure Cut
 62
256
370
-1
 48
1.0
  6
BYLAYER
100
AcDbCircle
 10
-37.0
 20
45.5
 30
0.0
 40
1.0
100
AcDbArc
 50
0.0
 51
90.0
  0
ARC
  5
1D2
100
AcDbEntity
  8
Enclosure Cut
 62
256
370
-1
 48
1.0
  6
BYLAYER
100
AcDbCircle
 10
-37.0
 20
40.5
 30
0.0
 40
1.0
100
AcDbArc
 50
0.0
 51
90.0
  0
ARC
  5
1D3
100
AcDbEntity
  8
Enclosure Cut
 62
256
370
-1
 48
1.0
  6
BYLAYER
100
AcDbCircle
 10
-37.0
 20
55.5
 30
0.0
 40
1.0
100
AcDbArc
 50
0.0
 51
90.0
  0
ARC
  5
1D4
100
AcDbEntity
  8
Enclosure Cut
 62
256
370
-1
 48
1.0
  6
BYLAYER
100
AcDbCircle
 10
-37.0
 20
50.5
 30
0.0
 40
1.0
100
AcDbArc
 50
0.0
 51
90.0
  0
ARC
  5
1D5
100
AcDbEntity
  8
Enclosure Cut
 62
256
370
-1
 48
1.0
  6
BYLAYER
100
AcDbCircle
 10
-37.0
 20
65.5
 30
0.0
 40
1.0
100
AcDbArc
 50
0.0
 51
90.0
  0
ARC
  5
1D6
100
AcDbEntity
  8
Enclosure Cut
 62
256
370
-1
 48
1.0
  6
BYLAYER
100
AcDbCircle
 10
-37.0
 20
60.5
 30
0.0
 40
1.0
100
AcDbArc
 50
0.0
 51
90.0
  0
ARC
  5
1D7
100
AcDbEntity
  8
Enclosure Cut
 62
256
370
-1
 48
1.0
  6
BYLAYER
100
AcDbCircle
 10
-37.0
 20
75.5
 30
0.0
 40
1.0
100
AcDbArc
 50
0.0
 51
90.0
  0
ARC
  5
1D8
100
AcDbEntity
  8
Enclosure Cut
 62
256
370
-1
 48
1.0
  6
BYLAYER
100
AcDbCircle
 10
-37.0
 20
70.5
 30
0.0
 40
1.0
100
AcDbArc
 50
0.0
 51
90.0
  0
ARC
  5
1D9
100
AcDbEntity
  8
Enclosure Cut
 62
256
370
-1
 48
1.0
  6
BYLAYER
100
AcDbCircle
 10
-37.0
 20
84.5
 30
0.0
 40
1.0
100
AcDbArc
 50
270.0
 51
0.0
  0
ARC
  5
1DA
100
AcDbEntity
  8
Enclosure Cut
 62
256
370
-1
 48
1.0
  6
BYLAYER
100
AcDbCircle
 10
-37.0
 20
79.5
 30
0.0
 40
1.0
100
AcDbArc
 50
270.0
 51
0.0
  0
ARC
  5
1DB
100
AcDbEntity
  8
Enclosure Cut
 62
256
370
-1
 48
1.0
  6
BYLAYER
100
AcDbCircle
 10
-37.0
 20
94.5
 30
0.0
 40
1.0
100
AcDbArc
 50
270.0
 51
0.0
  0
ARC
  5
1DC
100
AcDbEntity
  8
Enclosure Cut
 62
256
370
-1
 48
1.0
  6
BYLAYER
100
AcDbCircle
 10
-37.0
 20
89.5
 30
0.0
 40
1.0
100
AcDbArc
 50
270.0
 51
0.0
  0
ARC
  5
1DD
100
AcDbEntity
  8
Enclosure Cut
 62
256
370
-1
 48
1.0
  6
BYLAYER
100
AcDbCircle
 10
-37.0
 20
104.5
 30
0.0
 40
1.0
100
AcDbArc
 50
270.0
 51
0.0
  0
ARC
  5
1DE
100
AcDbEntity
  8
Enclosure Cut
 62
256
370
-1
 48
1.0
  6
BYLAYER
100
AcDbCircle
 10
-37.0
 20
99.5
 30
0.0
 40
1.0
100
AcDbArc
 50
270.0
 51
0.0
  0
ARC
  5
1DF
100
AcDbEntity
  8
Enclosure Cut
 62
256
370
-1
 48
1.0
  6
BYLAYER
100
AcDbCircle
 10
-37.0
 20
114.5
 30
0.0
 40
1.0
100
AcDbArc
 50
270.0
 51
0.0
  0
ARC
  5
1E0
100
AcDbEntity
  8
Enclosure Cut
 62
256
370
-1
 48
1.0
  6
BYLAYER
100
AcDbCircle
 10
-37.0
 20
109.5
 30
0.0
 40
1.0
100
AcDbArc
 50
270.0
 51
0.0
  0
ARC
  5
1E1
100
AcDbEntity
  8
Enclosure Cut
 62
256
370
-1
 48
1.0
  6
BYLAYER
100
AcDbCircle
 10
-37.0
 20
124.5
 30
0.0
 40
1.0
100
AcDbArc
 50
270.0
 51
0.0
  0
ARC
  5
1E2
100
AcDbEntity
  8
Enclosure Cut
 62
256
370
-1
 48
1.0
  6
BYLAYER
100
AcDbCircle
 10
-37.0
 20
119.5
 30
0.0
 40
1.0
100
AcDbArc
 50
270.0
 51
0.0
  0
ARC
  5
1E3
100
AcDbEntity
  8
Enclosure Cut
 62
256
370
-1
 48
1.0
  6
BYLAYER
100
AcDbCircle
 10
-37.0
 20
134.5
 30
0.0
 40
1.0
100
AcDbArc
 50
270.0
 51
0.0
  0
ARC
  5
1E4
100
AcDbEntity
  8
Enclosure Cut
 62
256
370
-1
 48
1.0
  6
BYLAYER
100
AcDbCircle
 10
-37.0
 20
129.5
 30
0.0
 40
1.0
100
AcDbArc
 50
270.0
 51
0.0
  0
ARC
  5
1E5
100
AcDbEntity
  8
Enclosure Cut
 62
256
370
-1
 48
1.0
  6
BYLAYER
100
AcDbCircle
 10
-37.0
 20
14.5
 30
0.0
 40
1.0
100
AcDbArc
 50
270.0
 51
0.0
  0
ARC
  5
1E6
100
AcDbEntity
  8
Enclosure Cut
 62
256
370
-1
 48
1.0
  6
BYLAYER
100
AcDbCircle
 10
-37.0
 20
24.5
 30
0.0
 40
1.0
100
AcDbArc
 50
270.0
 51
0.0
  0
ARC
  5
1E7
100
AcDbEntity
  8
Enclosure Cut
 62
256
370
-1
 48
1.0
  6
BYLAYER
100
AcDbCircle
 10
-37.0
 20
19.5
 30
0.0
 40
1.0
100
AcDbArc
 50
270.0
 51
0.0
  0
ARC
  5
1E8
100
AcDbEntity
  8
Enclosure Cut
 62
256
370
-1
 48
1.0
  6
BYLAYER
100
AcDbCircle
 10
-37.0
 20
34.5
 30
0.0
 40
1.0
100
AcDbArc
 50
270.0
 51
0.0
  0
ARC
  5
1E9
100
AcDbEntity
  8
Enclosure Cut
 62
256
370
-1
 48
1.0
  6
BYLAYER
100
AcDbCircle
 10
-37.0
 20
29.5
 30
0.0
 40
1.0
100
AcDbArc
 50
270.0
 51
0.0
  0
ARC
  5
1EA
100
AcDbEntity
  8
Enclosure Cut
 62
256
370
-1
 48
1.0
  6
BYLAYER
100
AcDbCircle
 10
-37.0
 20
44.5
 30
0.0
 40
1.0
100
AcDbArc
 50
270.0
 51
0.0
  0
ARC
  5
1EB
100
AcDbEntity
  8
Enclosure Cut
 62
256
370
-1
 48
1.0
  6
BYLAYER
100
AcDbCircle
 10
-37.0
 20
39.5
 30
0.0
 40
1.0
100
AcDbArc
 50
270.0
 51
0.0
  0
ARC
  5
1EC
100
AcDbEntity
  8
Enclosure Cut
 62
256
370
-1
 48
1.0
  6
BYLAYER
100
AcDbCircle
 10
-37.0
 20
54.5
 30
0.0
 40
1.0
100
AcDbArc
 50
270.0
 51
0.0
  0
ARC
  5
1ED
100
AcDbEntity
  8
Enclosure Cut
 62
256
370
-1
 48
1.0
  6
BYLAYER
100
AcDbCircle
 10
-37.0
 20
49.5
 30
0.0
 40
1.0
100
AcDbArc
 50
270.0
 51
0.0
  0
ARC
  5
1EE
100
AcDbEntity
  8
Enclosure Cut
 62
256
370
-1
 48
1.0
  6
BYLAYER
100
AcDbCircle
 10
-37.0
 20
64.5
 30
0.0
 40
1.0
100
AcDbArc
 50
270.0
 51
0.0
  0
ARC
  5
1EF
100
AcDbEntity
  8
Enclosure Cut
 62
256
370
-1
 48
1.0
  6
BYLAYER
100
AcDbCircle
 10
-37.0
 20
59.5
 30
0.0
 40
1.0
100
AcDbArc
 50
270.0
 51
0.0
  0
ARC
  5
1F0
100
AcDbEntity
  8
Enclosure Cut
 62
256
370
-1
 48
1.0
  6
BYLAYER
100
AcDbCircle
 10
-37.0
 20
74.5
 30
0.0
 40
1.0
100
AcDbArc
 50
270.0
 51
0.0
  0
ARC
  5
1F1
100
AcDbEntity
  8
Enclosure Cut
 62
256
370
-1
 48
1.0
  6
BYLAYER
100
AcDbCircle
 10
-37.0
 20
69.5
 30
0.0
 40
1.0
100
AcDbArc
 50
270.0
 51
0.0
  0
ARC
  5
1F2
100
AcDbEntity
  8
Enclosure Cut
 62
256
370
-1
 48
1.0
  6
BYLAYER
100
AcDbCircle
 10
-37.0
 20
139.5
 30
0.0
 40
1.0
100
AcDbArc
 50
270.0
 51
0.0
  0
ARC
  5
1F3
100
AcDbEntity
  8
Enclosure Cut
 62
256
370
-1
 48
1.0
  6
BYLAYER
100
AcDbCircle
 10
-56.0
 20
140.5
 30
0.0
 40
1.0
100
AcDbArc
 50
90.0
 51
180.0
  0
ARC
  5
1F4
100
AcDbEntity
  8
Enclosure Cut
 62
256
370
-1
 48
1.0
  6
BYLAYER
100
AcDbCircle
 10
-56.0
 20
85.5
 30
0.0
 40
1.0
100
AcDbArc
 50
90.0
 51
180.0
  0
ARC
  5
1F5
100
AcDbEntity
  8
Enclosure Cut
 62
256
370
-1
 48
1.0
  6
BYLAYER
100
AcDbCircle
 10
-56.0
 20
80.5
 30
0.0
 40
1.0
100
AcDbArc
 50
90.0
 51
180.0
  0
ARC
  5
1F6
100
AcDbEntity
  8
Enclosure Cut
 62
256
370
-1
 48
1.0
  6
BYLAYER
100
AcDbCircle
 10
-56.0
 20
95.5
 30
0.0
 40
1.0
100
AcDbArc
 50
90.0
 51
180.0
  0
ARC
  5
1F7
100
AcDbEntity
  8
Enclosure Cut
 62
256
370
-1
 48
1.0
  6
BYLAYER
100
AcDbCircle
 10
-56.0
 20
90.5
 30
0.0
 40
1.0
100
AcDbArc
 50
90.0
 51
180.0
  0
ARC
  5
1F8
100
AcDbEntity
  8
Enclosure Cut
 62
256
370
-1
 48
1.0
  6
BYLAYER
100
AcDbCircle
 10
-56.0
 20
105.5
 30
0.0
 40
1.0
100
AcDbArc
 50
90.0
 51
180.0
  0
ARC
  5
1F9
100
AcDbEntity
  8
Enclosure Cut
 62
256
370
-1
 48
1.0
  6
BYLAYER
100
AcDbCircle
 10
-56.0
 20
100.5
 30
0.0
 40
1.0
100
AcDbArc
 50
90.0
 51
180.0
  0
ARC
  5
1FA
100
AcDbEntity
  8
Enclosure Cut
 62
256
370
-1
 48
1.0
  6
BYLAYER
100
AcDbCircle
 10
-56.0
 20
115.5
 30
0.0
 40
1.0
100
AcDbArc
 50
90.0
 51
180.0
  0
ARC
  5
1FB
100
AcDbEntity
  8
Enclosure Cut
 62
256
370
-1
 48
1.0
  6
BYLAYER
100
AcDbCircle
 10
-56.0
 20
110.5
 30
0.0
 40
1.0
100
AcDbArc
 50
90.0
 51
180.0
  0
ARC
  5
1FC
100
AcDbEntity
  8
Enclosure Cut
 62
256
370
-1
 48
1.0
  6
BYLAYER
100
AcDbCircle
 10
-56.0
 20
125.5
 30
0.0
 40
1.0
100
AcDbArc
 50
90.0
 51
180.0
  0
ARC
  5
1FD
100
AcDbEntity
  8
Enclosure Cut
 62
256
370
-1
 48
1.0
  6
BYLAYER
100
AcDbCircle
 10
-56.0
 20
120.5
 30
0.0
 40
1.0
100
AcDbArc
 50
90.0
 51
180.0
  0
ARC
  5
1FE
100
AcDbEntity
  8
Enclosure Cut
 62
256
370
-1
 48
1.0
  6
BYLAYER
100
AcDbCircle
 10
-56.0
 20
135.5
 30
0.0
 40
1.0
100
AcDbArc
 50
90.0
 51
180.0
  0
ARC
  5
1FF
100
AcDbEntity
  8
Enclosure Cut
 62
256
370
-1
 48
1.0
  6
BYLAYER
100
AcDbCircle
 10
-56.0
 20
130.5
 30
0.0
 40
1.0
100
AcDbArc
 50
90.0
 51
180.0
  0
ARC
  5
200
100
AcDbEntity
  8
Enclosure Cut
 62
256
370
-1
 48
1.0
  6
BYLAYER
100
AcDbCircle
 10
-56.0
 20
15.5
 30
0.0
 40
1.0
100
AcDbArc
 50
90.0
 51
180.0
  0
ARC
  5
201
100
AcDbEntity
  8
Enclosure Cut
 62
256
370
-1
 48
1.0
  6
BYLAYER
100
AcDbCircle
 10
-56.0
 20
25.5
 30
0.0
 40
1.0
100
AcDbArc
 50
90.0
 51
180.0
  0
ARC
  5
202
100
AcDbEntity
  8
Enclosure Cut
 62
256
370
-1
 48
1.0
  6
BYLAYER
100
AcDbCircle
 10
-56.0
 20
20.5
 30
0.0
 40
1.0
100
AcDbArc
 50
90.0
 51
180.0
  0
ARC
  5
203
100
AcDbEntity
  8
Enclosure Cut
 62
256
370
-1
 48
1.0
  6
BYLAYER
100
AcDbCircle
 10
-56.0
 20
35.5
 30
0.0
 40
1.0
100
AcDbArc
 50
90.0
 51
180.0
  0
ARC
  5
204
100
AcDbEntity
  8
Enclosure Cut
 62
256
370
-1
 48
1.0
  6
BYLAYER
100
AcDbCircle
 10
-56.0
 20
30.5
 30
0.0
 40
1.0
100
AcDbArc
 50
90.0
 51
180.0
  0
ARC
  5
205
100
AcDbEntity
  8
Enclosure Cut
 62
256
370
-1
 48
1.0
  6
BYLAYER
100
AcDbCircle
 10
-56.0
 20
45.5
 30
0.0
 40
1.0
100
AcDbArc
 50
90.0
 51
180.0
  0
ARC
  5
206
100
AcDbEntity
  8
Enclosure Cut
 62
256
370
-1
 48
1.0
  6
BYLAYER
100
AcDbCircle
 10
-56.0
 20
40.5
 30
0.0
 40
1.0
100
AcDbArc
 50
90.0
 51
180.0
  0
ARC
  5
207
100
AcDbEntity
  8
Enclosure Cut
 62
256
370
-1
 48
1.0
  6
BYLAYER
100
AcDbCircle
 10
-56.0
 20
55.5
 30
0.0
 40
1.0
100
AcDbArc
 50
90.0
 51
180.0
  0
ARC
  5
208
100
AcDbEntity
  8
Enclosure Cut
 62
256
370
-1
 48
1.0
  6
BYLAYER
100
AcDbCircle
 10
-56.0
 20
50.5
 30
0.0
 40
1.0
100
AcDbArc
 50
90.0
 51
180.0
  0
ARC
  5
209
100
AcDbEntity
  8
Enclosure Cut
 62
256
370
-1
 48
1.0
  6
BYLAYER
100
AcDbCircle
 10
-56.0
 20
65.5
 30
0.0
 40
1.0
100
AcDbArc
 50
90.0
 51
180.0
  0
ARC
  5
20A
100
AcDbEntity
  8
Enclosure Cut
 62
256
370
-1
 48
1.0
  6
BYLAYER
100
AcDbCircle
 10
-56.0
 20
60.5
 30
0.0
 40
1.0
100
AcDbArc
 50
90.0
 51
180.0
  0
ARC
  5
20B
100
AcDbEntity
  8
Enclosure Cut
 62
256
370
-1
 48
1.0
  6
BYLAYER
100
AcDbCircle
 10
-56.0
 20
75.5
 30
0.0
 40
1.0
100
AcDbArc
 50
90.0
 51
180.0
  0
ARC
  5
20C
100
AcDbEntity
  8
Enclosure Cut
 62
256
370
-1
 48
1.0
  6
BYLAYER
100
AcDbCircle
 10
-56.0
 20
70.5
 30
0.0
 40
1.0
100
AcDbArc
 50
90.0
 51
180.0
  0
ARC
  5
20D
100
AcDbEntity
  8
Enclosure Cut
 62
256
370
-1
 48
1.0
  6
BYLAYER
100
AcDbCircle
 10
-56.0
 20
84.5
 30
0.0
 40
1.0
100
AcDbArc
 50
180.0
 51
270.0
  0
ARC
  5
20E
100
AcDbEntity
  8
Enclosure Cut
 62
256
370
-1
 48
1.0
  6
BYLAYER
100
AcDbCircle
 10
-56.0
 20
79.5
 30
0.0
 40
1.0
100
AcDbArc
 50
180.0
 51
270.0
  0
ARC
  5
20F
100
AcDbEntity
  8
Enclosure Cut
 62
256
370
-1
 48
1.0
  6
BYLAYER
100
AcDbCircle
 10
-56.0
 20
94.5
 30
0.0
 40
1.0
100
AcDbArc
 50
180.0
 51
270.0
  0
ARC
  5
210
100
AcDbEntity
  8
Enclosure Cut
 62
256
370
-1
 48
1.0
  6
BYLAYER
100
AcDbCircle
 10
-56.0
 20
89.5
 30
0.0
 40
1.0
100
AcDbArc
 50
180.0
 51
270.0
  0
ARC
  5
211
100
AcDbEntity
  8
Enclosure Cut
 62
256
370
-1
 48
1.0
  6
BYLAYER
100
AcDbCircle
 10
-56.0
 20
104.5
 30
0.0
 40
1.0
100
AcDbArc
 50
180.0
 51
270.0
  0
ARC
  5
212
100
AcDbEntity
  8
Enclosure Cut
 62
256
370
-1
 48
1.0
  6
BYLAYER
100
AcDbCircle
 10
-56.0
 20
99.5
 30
0.0
 40
1.0
100
AcDbArc
 50
180.0
 51
270.0
  0
ARC
  5
213
100
AcDbEntity
  8
Enclosure Cut
 62
256
370
-1
 48
1.0
  6
BYLAYER
100
AcDbCircle
 10
-56.0
 20
114.5
 30
0.0
 40
1.0
100
AcDbArc
 50
180.0
 51
270.0
  0
ARC
  5
214
100
AcDbEntity
  8
Enclosure Cut
 62
256
370
-1
 48
1.0
  6
BYLAYER
100
AcDbCircle
 10
-56.0
 20
109.5
 30
0.0
 40
1.0
100
AcDbArc
 50
180.0
 51
270.0
  0
ARC
  5
215
100
AcDbEntity
  8
Enclosure Cut
 62
256
370
-1
 48
1.0
  6
BYLAYER
100
AcDbCircle
 10
-56.0
 20
124.5
 30
0.0
 40
1.0
100
AcDbArc
 50
180.0
 51
270.0
  0
ARC
  5
216
100
AcDbEntity
  8
Enclosure Cut
 62
256
370
-1
 48
1.0
  6
BYLAYER
100
AcDbCircle
 10
-56.0
 20
119.5
 30
0.0
 40
1.0
100
AcDbArc
 50
180.0
 51
270.0
  0
ARC
  5
217
100
AcDbEntity
  8
Enclosure Cut
 62
256
370
-1
 48
1.0
  6
BYLAYER
100
AcDbCircle
 10
-56.0
 20
134.5
 30
0.0
 40
1.0
100
AcDbArc
 50
180.0
 51
270.0
  0
ARC
  5
218
100
AcDbEntity
  8
Enclosure Cut
 62
256
370
-1
 48
1.0
  6
BYLAYER
100
AcDbCircle
 10
-56.0
 20
129.5
 30
0.0
 40
1.0
100
AcDbArc
 50
180.0
 51
270.0
  0
ARC
  5
219
100
AcDbEntity
  8
Enclosure Cut
 62
256
370
-1
 48
1.0
  6
BYLAYER
100
AcDbCircle
 10
-56.0
 20
14.5
 30
0.0
 40
1.0
100
AcDbArc
 50
180.0
 51
270.0
  0
ARC
  5
21A
100
AcDbEntity
  8
Enclosure Cut
 62
256
370
-1
 48
1.0
  6
BYLAYER
100
AcDbCircle
 10
-56.0
 20
24.5
 30
0.0
 40
1.0
100
AcDbArc
 50
180.0
 51
270.0
  0
ARC
  5
21B
100
AcDbEntity
  8
Enclosure Cut
 62
256
370
-1
 48
1.0
  6
BYLAYER
100
AcDbCircle
 10
-56.0
 20
19.5
 30
0.0
 40
1.0
100
AcDbArc
 50
180.0
 51
270.0
  0
ARC
  5
21C
100
AcDbEntity
  8
Enclosure Cut
 62
256
370
-1
 48
1.0
  6
BYLAYER
100
AcDbCircle
 10
-56.0
 20
34.5
 30
0.0
 40
1.0
100
AcDbArc
 50
180.0
 51
270.0
  0
ARC
  5
21D
100
AcDbEntity
  8
Enclosure Cut
 62
256
370
-1
 48
1.0
  6
BYLAYER
100
AcDbCircle
 10
-56.0
 20
29.5
 30
0.0
 40
1.0
100
AcDbArc
 50
180.0
 51
270.0
  0
ARC
  5
21E
100
AcDbEntity
  8
Enclosure Cut
 62
256
370
-1
 48
1.0
  6
BYLAYER
100
AcDbCircle
 10
-56.0
 20
44.5
 30
0.0
 40
1.0
100
AcDbArc
 50
180.0
 51
270.0
  0
ARC
  5
21F
100
AcDbEntity
  8
Enclosure Cut
 62
256
370
-1
 48
1.0
  6
BYLAYER
100
AcDbCircle
 10
-56.0
 20
39.5
 30
0.0
 40
1.0
100
AcDbArc
 50
180.0
 51
270.0
  0
ARC
  5
220
100
AcDbEntity
  8
Enclosure Cut
 62
256
370
-1
 48
1.0
  6
BYLAYER
100
AcDbCircle
 10
-56.0
 20
54.5
 30
0.0
 40
1.0
100
AcDbArc
 50
180.0
 51
270.0
  0
ARC
  5
221
100
AcDbEntity
  8
Enclosure Cut
 62
256
370
-1
 48
1.0
  6
BYLAYER
100
AcDbCircle
 10
-56.0
 20
49.5
 30
0.0
 40
1.0
100
AcDbArc
 50
180.0
 51
270.0
  0
ARC
  5
222
100
AcDbEntity
  8
Enclosure Cut
 62
256
370
-1
 48
1.0
  6
BYLAYER
100
AcDbCircle
 10
-56.0
 20
64.5
 30
0.0
 40
1.0
100
AcDbArc
 50
180.0
 51
270.0
  0
ARC
  5
223
100
AcDbEntity
  8
Enclosure Cut
 62
256
370
-1
 48
1.0
  6
BYLAYER
100
AcDbCircle
 10
-56.0
 20
59.5
 30
0.0
 40
1.0
100
AcDbArc
 50
180.0
 51
270.0
  0
ARC
  5
224
100
AcDbEntity
  8
Enclosure Cut
 62
256
370
-1
 48
1.0
  6
BYLAYER
100
AcDbCircle
 10
-56.0
 20
74.5
 30
0.0
 40
1.0
100
AcDbArc
 50
180.0
 51
270.0
  0
ARC
  5
225
100
AcDbEntity
  8
Enclosure Cut
 62
256
370
-1
 48
1.0
  6
BYLAYER
100
AcDbCircle
 10
-56.0
 20
69.5
 30
0.0
 40
1.0
100
AcDbArc
 50
180.0
 51
270.0
  0
ARC
  5
226
100
AcDbEntity
  8
Enclosure Cut
 62
256
370
-1
 48
1.0
  6
BYLAYER
100
AcDbCircle
 10
-56.0
 20
139.5
 30
0.0
 40
1.0
100
AcDbArc
 50
180.0
 51
270.0
  0
LINE
  5
227
100
AcDbEntity
100
AcDbLine
  8
Enclosure Cut
 62
256
370
-1
 48
1.0
  6
BYLAYER
 10
110.0
 20
240.0
 30
0.0
 11
110.0
 21
230.0
 31
0.0
  0
LINE
  5
228
100
AcDbEntity
100
AcDbLine
  8
Enclosure Cut
 62
256
370
-1
 48
1.0
  6
BYLAYER
 10
110.0
 20
240.0
 30
0.0
 11
107.0
 21
240.0
 31
0.0
  0
LINE
  5
229
100
AcDbEntity
100
AcDbLine
  8
Enclosure Cut
 62
256
370
-1
 48
1.0
  6
BYLAYER
 10
107.0
 20
240.0
 30
0.0
 11
107.0
 21
250.0
 31
0.0
  0
LINE
  5
22A
100
AcDbEntity
100
AcDbLine
  8
Enclosure Cut
 62
256
370
-1
 48
1.0
  6
BYLAYER
 10
107.0
 20
250.0
 30
0.0
 11
110.0
 21
250.0
 31
0.0
  0
LINE
  5
22B
100
AcDbEntity
100
AcDbLine
  8
Enclosure Cut
 62
256
370
-1
 48
1.0
  6
BYLAYER
 10
0.0
 20
220.0
 30
0.0
 11
3.0
 21
220.0
 31
0.0
  0
LINE
  5
22C
100
AcDbEntity
100
AcDbLine
  8
Enclosure Cut
 62
256
370
-1
 48
1.0
  6
BYLAYER
 10
3.0
 20
220.0
 30
0.0
 11
3.0
 21
230.0
 31
0.0
  0
LINE
  5
22D
100
AcDbEntity
100
AcDbLine
  8
Enclosure Cut
 62
256
370
-1
 48
1.0
  6
BYLAYER
 10
0.0
 20
250.0
 30
0.0
 11
3.0
 21
250.0
 31
0.0
  0
LINE
  5
22E
100
AcDbEntity
100
AcDbLine
  8
Enclosure Cut
 62
256
370
-1
 48
1.0
  6
BYLAYER
 10
3.0
 20
250.0
 30
0.0
 11
3.0
 21
240.0
 31
0.0
  0
LINE
  5
22F
100
AcDbEntity
100
AcDbLine
  8
Enclosure Cut
 62
256
370
-1
 48
1.0
  6
BYLAYER
 10
-0.0
 20
240.0
 30
0.0
 11
0.0
 21
230.0
 31
0.0
  0
CIRCLE
  5
230
100
AcDbEntity
100
AcDbCircle
  8
Enclosure Cut
 62
256
370
-1
 48
1.0
  6
BYLAYER
 10
146.0533938670996
 20
137.94091373149561
 30
0.0
 40
9.0
  0
LINE
  5
231
100
AcDbEntity
100
AcDbLine
  8
Enclosure Cut
 62
256
370
-1
 48
1.0
  6
BYLAYER
 10
-10.0
 20
164.0
 30
0.0
 11
-10.0
 21
164.0
 31
0.0
  0
LINE
  5
232
100
AcDbEntity
100
AcDbLine
  8
Enclosure Cut
 62
256
370
-1
 48
1.0
  6
BYLAYER
 10
145.0
 20
164.0
 30
0.0
 11
145.0
 21
94.0
 31
0.0
  0
DIMENSION
  5
233
100
AcDbEntity
  8
Enclosure Help Lines
 62
256
370
-1
 48
1.0
  6
BYLAYER
100
AcDbDimension
 10
114.0
 20
3.0
 30
0.0
 11
112.125
 21
8.0
 31
0.0
 70
0
 71
8
 72
2
 41
1.0
 42
0.0
  1

  3
Standard
100
AcDbAlignedDimension
 13
108.0
 23
3.0
 33
0.0
 14
110.0
 24
13.0
 34
0.0
 50
90.0
100
AcDbRotatedDimension
1001
ACAD
1000
DSTYLE
1002
{
1070
144
1040
1.0
1070
40
1040
1.0
1002
}
  0
DIMENSION
  5
234
100
AcDbEntity
  8
Enclosure Help Lines
 62
256
370
-1
 48
1.0
  6
BYLAYER
100
AcDbDimension
 10
-70.0
 20
164.0
 30
0.0
 11
-71.875
 21
159.0
 31
0.0
 70
0
 71
8
 72
2
 41
1.0
 42
0.0
  1

  3
Standard
100
AcDbAlignedDimension
 13
-60.0
 23
164.0
 33
0.0
 14
-60.0
 24
154.0
 34
0.0
 50
90.0
100
AcDbRotatedDimension
1001
ACAD
1000
DSTYLE
1002
{
1070
144
1040
1.0
1070
40
1040
1.0
1002
}
  0
DIMENSION
  5
235
100
AcDbEntity
  8
Enclosure Help Lines
 62
256
370
-1
 48
1.0
  6
BYLAYER
100
AcDbDimension
 10
114.0
 20
164.0
 30
0.0
 11
112.125
 21
159.0
 31
0.0
 70
0
 71
8
 72
2
 41
1.0
 42
0.0
  1

  3
Standard
100
AcDbAlignedDimension
 13
120.0
 23
164.0
 33
0.0
 14
120.0
 24
154.0
 34
0.0
 50
90.0
100
AcDbRotatedDimension
1001
ACAD
1000
DSTYLE
1002
{
1070
144
1040
1.0
1070
40
1040
1.0
1002
}
  0
ENDSEC
  0
SECTION
  2
OBJECTS
  0
DICTIONARY
  5
C
100
AcDbDictionary
280
0
281
1
  3
ACAD_GROUP
350
D
  3
ACAD_LAYOUT
350
1A
  3
ACAD_MLINESTYLE
350
17
  3
ACAD_PLOTSETTINGS
350
19
  3
ACAD_PLOTSTYLENAME
350
E
  3
AcDbVariableDictionary
350
236
  3
QCAD_OBJECTS
350
237
  0
DICTIONARY
  5
D
100
AcDbDictionary
280
0
281
1
  0
ACDBDICTIONARYWDFLT
  5
E
100
AcDbDictionary
281
1
  3
Normal
350
F
100
AcDbDictionaryWithDefault
340
F
  0
ACDBPLACEHOLDER
  5
F
  0
DICTIONARY
  5
17
100
AcDbDictionary
280
0
281
1
  3
Standard
350
18
  0
MLINESTYLE
  5
18
100
AcDbMlineStyle
  2
STANDARD
 70
0
  3

 62
256
 51
90.0
 52
90.0
 71
2
 49
0.5
 62
256
  6
BYLAYER
 49
-0.5
 62
256
  6
BYLAYER
  0
DICTIONARY
  5
19
100
AcDbDictionary
280
0
281
1
  0
DICTIONARY
  5
1A
100
AcDbDictionary
281
1
  3
Layout1
350
1E
  3
Layout2
350
26
  3
Model
350
22
  0
LAYOUT
  5
1E
100
AcDbPlotSettings
  1

  2
none_device
  4

  6

 40
0.0
 41
0.0
 42
0.0
 43
0.0
 44
0.0
 45
0.0
 46
0.0
 47
0.0
 48
0.0
 49
0.0
140
0.0
141
0.0
142
1.0
143
1.0
 70
688
 72
0
 73
0
 74
5
  7

 75
16
147
1.0
148
0.0
149
0.0
100
AcDbLayout
  1
Layout1
 70
1
 71
1
 10
0.0
 20
0.0
 11
420.0
 21
297.0
 12
0.0
 22
0.0
 32
0.0
 14
100000000000000000000.0
 24
100000000000000000000.0
 34
100000000000000000000.0
 15
-100000000000000000000.0
 25
-100000000000000000000.0
 35
-100000000000000000000.0
146
0.0
 13
0.0
 23
0.0
 33
0.0
 16
1.0
 26
0.0
 36
0.0
 17
0.0
 27
1.0
 37
0.0
 76
0
330
1B
  0
LAYOUT
  5
22
100
AcDbPlotSettings
  1

  2
none_device
  4

  6

 40
0.0
 41
0.0
 42
0.0
 43
0.0
 44
0.0
 45
0.0
 46
0.0
 47
0.0
 48
0.0
 49
0.0
140
0.0
141
0.0
142
1.0
143
1.0
 70
1712
 72
0
 73
0
 74
0
  7

 75
0
147
1.0
148
0.0
149
0.0
100
AcDbLayout
  1
Model
 70
1
 71
0
 10
0.0
 20
0.0
 11
12.0
 21
9.0
 12
0.0
 22
0.0
 32
0.0
 14
0.0
 24
0.0
 34
0.0
 15
0.0
 25
0.0
 35
0.0
146
0.0
 13
0.0
 23
0.0
 33
0.0
 16
1.0
 26
0.0
 36
0.0
 17
0.0
 27
1.0
 37
0.0
 76
0
330
1F
  0
LAYOUT
  5
26
100
AcDbPlotSettings
  1

  2
none_device
  4

  6

 40
0.0
 41
0.0
 42
0.0
 43
0.0
 44
0.0
 45
0.0
 46
0.0
 47
0.0
 48
0.0
 49
0.0
140
0.0
141
0.0
142
1.0
143
1.0
 70
688
 72
0
 73
0
 74
5
  7

 75
16
147
1.0
148
0.0
149
0.0
100
AcDbLayout
  1
Layout2
 70
1
 71
2
 10
0.0
 20
0.0
 11
12.0
 21
9.0
 12
0.0
 22
0.0
 32
0.0
 14
0.0
 24
0.0
 34
0.0
 15
0.0
 25
0.0
 35
0.0
146
0.0
 13
0.0
 23
0.0
 33
0.0
 16
1.0
 26
0.0
 36
0.0
 17
0.0
 27
1.0
 37
0.0
 76
0
330
23
  0
DICTIONARY
  5
236
100
AcDbDictionary
281
1
  3
DIMASSOC
350
239
  3
HIDETEXT
350
238
  0
DICTIONARYVAR
  5
238
100
DictionaryVariables
280
0
  1
2
  0
DICTIONARYVAR
  5
239
100
DictionaryVariables
280
0
  1
1
  0
DICTIONARY
  5
237
100
AcDbDictionary
281
1
  3
ColorSettings/BackgroundColor
350
23A
  3
ColorSettings/ColorMode
350
23B
  3
Grid/DisplayGrid00
350
23C
  3
Grid/DisplayGrid01
350
23D
  3
Grid/DisplayGrid02
350
23E
  3
Grid/DisplayGrid03
350
23F
  3
Grid/GridSpacingX00
350
240
  3
Grid/GridSpacingX01
350
241
  3
Grid/GridSpacingX02
350
242
  3
Grid/GridSpacingX03
350
243
  3
Grid/GridSpacingY00
350
244
  3
Grid/GridSpacingY01
350
245
  3
Grid/GridSpacingY02
350
246
  3
Grid/GridSpacingY03
350
247
  3
Grid/IsometricGrid00
350
248
  3
Grid/IsometricGrid01
350
249
  3
Grid/IsometricGrid02
350
24A
  3
Grid/IsometricGrid03
350
24B
  3
Grid/IsometricProjection00
350
24C
  3
Grid/IsometricProjection01
350
24D
  3
Grid/IsometricProjection02
350
24E
  3
Grid/IsometricProjection03
350
24F
  3
Grid/MetaGridSpacingX00
350
250
  3
Grid/MetaGridSpacingX01
350
251
  3
Grid/MetaGridSpacingX02
350
252
  3
Grid/MetaGridSpacingX03
350
253
  3
Grid/MetaGridSpacingY00
350
254
  3
Grid/MetaGridSpacingY01
350
255
  3
Grid/MetaGridSpacingY02
350
256
  3
Grid/MetaGridSpacingY03
350
257
  3
MultiPageSettings/Columns
350
258
  3
MultiPageSettings/GlueMarginsBottom
350
259
  3
MultiPageSettings/GlueMarginsLeft
350
25A
  3
MultiPageSettings/GlueMarginsRight
350
25B
  3
MultiPageSettings/GlueMarginsTop
350
25C
  3
MultiPageSettings/PrintCropMarks
350
25D
  3
MultiPageSettings/Rows
350
25E
  3
PageSettings/OffsetX
350
25F
  3
PageSettings/OffsetY
350
260
  3
PageSettings/PageOrientation
350
261
  3
PageSettings/PaperHeight
350
262
  3
PageSettings/PaperWidth
350
263
  3
PageSettings/Scale
350
264
  3
PageSettings/ShowPaperBorders
350
265
  3
QCADVersion
350
266
  3
UnitSettings/PaperUnit
350
267
  3
ViewportCenter
350
268
  3
ViewportHeight
350
269
  3
ViewportWidth
350
26A
  0
XRECORD
  5
23A
330
237
100
AcDbXrecord
280
1
1000
White
  0
XRECORD
  5
23B
330
237
100
AcDbXrecord
280
1
1000
BlackWhite
  0
XRECORD
  5
23C
330
237
100
AcDbXrecord
280
1
290
1
  0
XRECORD
  5
23D
330
237
100
AcDbXrecord
280
1
290
1
  0
XRECORD
  5
23E
330
237
100
AcDbXrecord
280
1
290
1
  0
XRECORD
  5
23F
330
237
100
AcDbXrecord
280
1
290
1
  0
XRECORD
  5
240
330
237
100
AcDbXrecord
280
1
1000
auto
  0
XRECORD
  5
241
330
237
100
AcDbXrecord
280
1
1000
auto
  0
XRECORD
  5
242
330
237
100
AcDbXrecord
280
1
1000
auto
  0
XRECORD
  5
243
330
237
100
AcDbXrecord
280
1
1000
auto
  0
XRECORD
  5
244
330
237
100
AcDbXrecord
280
1
1000
auto
  0
XRECORD
  5
245
330
237
100
AcDbXrecord
280
1
1000
auto
  0
XRECORD
  5
246
330
237
100
AcDbXrecord
280
1
1000
auto
  0
XRECORD
  5
247
330
237
100
AcDbXrecord
280
1
1000
auto
  0
XRECORD
  5
248
330
237
100
AcDbXrecord
280
1
290
0
  0
XRECORD
  5
249
330
237
100
AcDbXrecord
280
1
290
0
  0
XRECORD
  5
24A
330
237
100
AcDbXrecord
280
1
290
0
  0
XRECORD
  5
24B
330
237
100
AcDbXrecord
280
1
290
0
  0
XRECORD
  5
24C
330
237
100
AcDbXrecord
280
1
 90
0
  0
XRECORD
  5
24D
330
237
100
AcDbXrecord
280
1
 90
0
  0
XRECORD
  5
24E
330
237
100
AcDbXrecord
280
1
 90
0
  0
XRECORD
  5
24F
330
237
100
AcDbXrecord
280
1
 90
0
  0
XRECORD
  5
250
330
237
100
AcDbXrecord
280
1
1000
auto
  0
XRECORD
  5
251
330
237
100
AcDbXrecord
280
1
1000
auto
  0
XRECORD
  5
252
330
237
100
AcDbXrecord
280
1
1000
auto
  0
XRECORD
  5
253
330
237
100
AcDbXrecord
280
1
1000
auto
  0
XRECORD
  5
254
330
237
100
AcDbXrecord
280
1
1000
auto
  0
XRECORD
  5
255
330
237
100
AcDbXrecord
280
1
1000
auto
  0
XRECORD
  5
256
330
237
100
AcDbXrecord
280
1
1000
auto
  0
XRECORD
  5
257
330
237
100
AcDbXrecord
280
1
1000
auto
  0
XRECORD
  5
258
330
237
100
AcDbXrecord
280
1
 90
1
  0
XRECORD
  5
259
330
237
100
AcDbXrecord
280
1
 40
10.0
  0
XRECORD
  5
25A
330
237
100
AcDbXrecord
280
1
 40
10.0
  0
XRECORD
  5
25B
330
237
100
AcDbXrecord
280
1
 40
10.0
  0
XRECORD
  5
25C
330
237
100
AcDbXrecord
280
1
 40
10.0
  0
XRECORD
  5
25D
330
237
100
AcDbXrecord
280
1
290
0
  0
XRECORD
  5
25E
330
237
100
AcDbXrecord
280
1
 90
1
  0
XRECORD
  5
25F
330
237
100
AcDbXrecord
280
1
 40
-95.469963087248303
  0
XRECORD
  5
260
330
237
100
AcDbXrecord
280
1
 40
-18.055033557047
  0
XRECORD
  5
261
330
237
100
AcDbXrecord
280
1
1000
Landscape
  0
XRECORD
  5
262
330
237
100
AcDbXrecord
280
1
 40
297.0
  0
XRECORD
  5
263
330
237
100
AcDbXrecord
280
1
 40
210.0
  0
XRECORD
  5
264
330
237
100
AcDbXrecord
280
1
1000
1:1
  0
XRECORD
  5
265
330
237
100
AcDbXrecord
280
1
290
1
  0
XRECORD
  5
266
330
237
100
AcDbXrecord
280
1
1000
3.15.5
  0
XRECORD
  5
267
330
237
100
AcDbXrecord
280
1
 90
4
  0
XRECORD
  5
269
330
237
100
AcDbXrecord
280
1
 40
37.708492913219629
  0
XRECORD
  5
26A
330
237
100
AcDbXrecord
280
1
 40
49.026404726433469
  0
ENDSEC
  0
EOF
